M48
; DRILL file {KiCad 5.1.4+dfsg1-1} date Thu 21 Nov 2019 09:12:42 PM PST
; FORMAT={-:-/ absolute / metric / decimal}
; #@! TF.CreationDate,2019-11-21T21:12:42-08:00
; #@! TF.GenerationSoftware,Kicad,Pcbnew,5.1.4+dfsg1-1
FMAT,2
METRIC
T1C0.400
T2C1.000
T3C2.500
T4C2.200
%
G90
G05
T1
X3.683Y-11.43
X5.588Y-3.683
X8.534Y-2.705
X17.409Y-17.261
X19.05Y-17.272
X20.465Y-17.367
X21.907Y-17.335
X24.003Y-11.43
X26.543Y-11.43
X27.813Y-17.907
X30.353Y-3.81
X30.353Y-18.669
X34.861Y-19.113
X36.884Y-19.24
X38.481Y-3.302
X38.483Y-18.719
X48.138Y-3.932
T2
X6.35Y-21.59
X8.89Y-21.59
X11.43Y-21.59
X13.97Y-21.59
X16.51Y-21.59
X19.05Y-21.59
X21.59Y-21.59
X24.13Y-21.59
X26.67Y-21.59
X29.21Y-21.59
X31.75Y-21.59
X34.29Y-21.59
X36.83Y-21.59
X39.37Y-21.59
X41.91Y-21.59
X44.45Y-21.59
X43.18Y-5.08
X43.18Y-7.62
X43.18Y-10.16
X43.18Y-12.7
X43.18Y-15.24
X43.18Y-17.78
X45.72Y-5.08
X45.72Y-7.62
X45.72Y-10.16
X45.72Y-12.7
X45.72Y-15.24
X45.72Y-17.78
X16.51Y-1.27
X19.05Y-1.27
X21.59Y-1.27
X24.13Y-1.27
X26.67Y-1.27
X29.21Y-1.27
X31.75Y-1.27
X34.29Y-1.27
X36.83Y-1.27
X39.37Y-1.27
X41.91Y-1.27
X44.45Y-1.27
T3
X2.54Y-20.32
X2.54Y-2.54
T4
X48.26Y-1.905
X48.26Y-20.955
T0
M30
