G04 #@! TF.GenerationSoftware,KiCad,Pcbnew,5.1.4+dfsg1-1*
G04 #@! TF.CreationDate,2019-11-21T21:12:40-08:00*
G04 #@! TF.ProjectId,feather-wing-pmod,66656174-6865-4722-9d77-696e672d706d,rev?*
G04 #@! TF.SameCoordinates,PX791ddc0PY4d83c00*
G04 #@! TF.FileFunction,Paste,Top*
G04 #@! TF.FilePolarity,Positive*
%FSLAX46Y46*%
G04 Gerber Fmt 4.6, Leading zero omitted, Abs format (unit mm)*
G04 Created by KiCad (PCBNEW 5.1.4+dfsg1-1) date 2019-11-21 21:12:40*
%MOMM*%
%LPD*%
G04 APERTURE LIST*
%ADD10R,0.900000X1.000000*%
%ADD11R,1.500000X3.000000*%
%ADD12C,0.100000*%
%ADD13C,0.875000*%
G04 APERTURE END LIST*
D10*
X10559000Y-2705000D03*
X10559000Y-1105000D03*
X6459000Y-2705000D03*
X6459000Y-1105000D03*
D11*
X24003000Y-13970000D03*
X24003000Y-8890000D03*
X26543000Y-13970000D03*
X26543000Y-8890000D03*
X29083000Y-13970000D03*
X29083000Y-8890000D03*
X31623000Y-13970000D03*
X31623000Y-8890000D03*
X34163000Y-13970000D03*
X34163000Y-8890000D03*
X36703000Y-13970000D03*
X36703000Y-8890000D03*
X1143000Y-13970000D03*
X1143000Y-8890000D03*
X3683000Y-13970000D03*
X3683000Y-8890000D03*
X6223000Y-13970000D03*
X6223000Y-8890000D03*
X8763000Y-13970000D03*
X8763000Y-8890000D03*
X11303000Y-13970000D03*
X11303000Y-8890000D03*
X13843000Y-13970000D03*
X13843000Y-8890000D03*
D12*
G36*
X40409691Y-15286053D02*
G01*
X40430926Y-15289203D01*
X40451750Y-15294419D01*
X40471962Y-15301651D01*
X40491368Y-15310830D01*
X40509781Y-15321866D01*
X40527024Y-15334654D01*
X40542930Y-15349070D01*
X40557346Y-15364976D01*
X40570134Y-15382219D01*
X40581170Y-15400632D01*
X40590349Y-15420038D01*
X40597581Y-15440250D01*
X40602797Y-15461074D01*
X40605947Y-15482309D01*
X40607000Y-15503750D01*
X40607000Y-15941250D01*
X40605947Y-15962691D01*
X40602797Y-15983926D01*
X40597581Y-16004750D01*
X40590349Y-16024962D01*
X40581170Y-16044368D01*
X40570134Y-16062781D01*
X40557346Y-16080024D01*
X40542930Y-16095930D01*
X40527024Y-16110346D01*
X40509781Y-16123134D01*
X40491368Y-16134170D01*
X40471962Y-16143349D01*
X40451750Y-16150581D01*
X40430926Y-16155797D01*
X40409691Y-16158947D01*
X40388250Y-16160000D01*
X39875750Y-16160000D01*
X39854309Y-16158947D01*
X39833074Y-16155797D01*
X39812250Y-16150581D01*
X39792038Y-16143349D01*
X39772632Y-16134170D01*
X39754219Y-16123134D01*
X39736976Y-16110346D01*
X39721070Y-16095930D01*
X39706654Y-16080024D01*
X39693866Y-16062781D01*
X39682830Y-16044368D01*
X39673651Y-16024962D01*
X39666419Y-16004750D01*
X39661203Y-15983926D01*
X39658053Y-15962691D01*
X39657000Y-15941250D01*
X39657000Y-15503750D01*
X39658053Y-15482309D01*
X39661203Y-15461074D01*
X39666419Y-15440250D01*
X39673651Y-15420038D01*
X39682830Y-15400632D01*
X39693866Y-15382219D01*
X39706654Y-15364976D01*
X39721070Y-15349070D01*
X39736976Y-15334654D01*
X39754219Y-15321866D01*
X39772632Y-15310830D01*
X39792038Y-15301651D01*
X39812250Y-15294419D01*
X39833074Y-15289203D01*
X39854309Y-15286053D01*
X39875750Y-15285000D01*
X40388250Y-15285000D01*
X40409691Y-15286053D01*
X40409691Y-15286053D01*
G37*
D13*
X40132000Y-15722500D03*
D12*
G36*
X40409691Y-16861053D02*
G01*
X40430926Y-16864203D01*
X40451750Y-16869419D01*
X40471962Y-16876651D01*
X40491368Y-16885830D01*
X40509781Y-16896866D01*
X40527024Y-16909654D01*
X40542930Y-16924070D01*
X40557346Y-16939976D01*
X40570134Y-16957219D01*
X40581170Y-16975632D01*
X40590349Y-16995038D01*
X40597581Y-17015250D01*
X40602797Y-17036074D01*
X40605947Y-17057309D01*
X40607000Y-17078750D01*
X40607000Y-17516250D01*
X40605947Y-17537691D01*
X40602797Y-17558926D01*
X40597581Y-17579750D01*
X40590349Y-17599962D01*
X40581170Y-17619368D01*
X40570134Y-17637781D01*
X40557346Y-17655024D01*
X40542930Y-17670930D01*
X40527024Y-17685346D01*
X40509781Y-17698134D01*
X40491368Y-17709170D01*
X40471962Y-17718349D01*
X40451750Y-17725581D01*
X40430926Y-17730797D01*
X40409691Y-17733947D01*
X40388250Y-17735000D01*
X39875750Y-17735000D01*
X39854309Y-17733947D01*
X39833074Y-17730797D01*
X39812250Y-17725581D01*
X39792038Y-17718349D01*
X39772632Y-17709170D01*
X39754219Y-17698134D01*
X39736976Y-17685346D01*
X39721070Y-17670930D01*
X39706654Y-17655024D01*
X39693866Y-17637781D01*
X39682830Y-17619368D01*
X39673651Y-17599962D01*
X39666419Y-17579750D01*
X39661203Y-17558926D01*
X39658053Y-17537691D01*
X39657000Y-17516250D01*
X39657000Y-17078750D01*
X39658053Y-17057309D01*
X39661203Y-17036074D01*
X39666419Y-17015250D01*
X39673651Y-16995038D01*
X39682830Y-16975632D01*
X39693866Y-16957219D01*
X39706654Y-16939976D01*
X39721070Y-16924070D01*
X39736976Y-16909654D01*
X39754219Y-16896866D01*
X39772632Y-16885830D01*
X39792038Y-16876651D01*
X39812250Y-16869419D01*
X39833074Y-16864203D01*
X39854309Y-16861053D01*
X39875750Y-16860000D01*
X40388250Y-16860000D01*
X40409691Y-16861053D01*
X40409691Y-16861053D01*
G37*
D13*
X40132000Y-17297500D03*
D12*
G36*
X26300691Y-5749053D02*
G01*
X26321926Y-5752203D01*
X26342750Y-5757419D01*
X26362962Y-5764651D01*
X26382368Y-5773830D01*
X26400781Y-5784866D01*
X26418024Y-5797654D01*
X26433930Y-5812070D01*
X26448346Y-5827976D01*
X26461134Y-5845219D01*
X26472170Y-5863632D01*
X26481349Y-5883038D01*
X26488581Y-5903250D01*
X26493797Y-5924074D01*
X26496947Y-5945309D01*
X26498000Y-5966750D01*
X26498000Y-6479250D01*
X26496947Y-6500691D01*
X26493797Y-6521926D01*
X26488581Y-6542750D01*
X26481349Y-6562962D01*
X26472170Y-6582368D01*
X26461134Y-6600781D01*
X26448346Y-6618024D01*
X26433930Y-6633930D01*
X26418024Y-6648346D01*
X26400781Y-6661134D01*
X26382368Y-6672170D01*
X26362962Y-6681349D01*
X26342750Y-6688581D01*
X26321926Y-6693797D01*
X26300691Y-6696947D01*
X26279250Y-6698000D01*
X25841750Y-6698000D01*
X25820309Y-6696947D01*
X25799074Y-6693797D01*
X25778250Y-6688581D01*
X25758038Y-6681349D01*
X25738632Y-6672170D01*
X25720219Y-6661134D01*
X25702976Y-6648346D01*
X25687070Y-6633930D01*
X25672654Y-6618024D01*
X25659866Y-6600781D01*
X25648830Y-6582368D01*
X25639651Y-6562962D01*
X25632419Y-6542750D01*
X25627203Y-6521926D01*
X25624053Y-6500691D01*
X25623000Y-6479250D01*
X25623000Y-5966750D01*
X25624053Y-5945309D01*
X25627203Y-5924074D01*
X25632419Y-5903250D01*
X25639651Y-5883038D01*
X25648830Y-5863632D01*
X25659866Y-5845219D01*
X25672654Y-5827976D01*
X25687070Y-5812070D01*
X25702976Y-5797654D01*
X25720219Y-5784866D01*
X25738632Y-5773830D01*
X25758038Y-5764651D01*
X25778250Y-5757419D01*
X25799074Y-5752203D01*
X25820309Y-5749053D01*
X25841750Y-5748000D01*
X26279250Y-5748000D01*
X26300691Y-5749053D01*
X26300691Y-5749053D01*
G37*
D13*
X26060500Y-6223000D03*
D12*
G36*
X24725691Y-5749053D02*
G01*
X24746926Y-5752203D01*
X24767750Y-5757419D01*
X24787962Y-5764651D01*
X24807368Y-5773830D01*
X24825781Y-5784866D01*
X24843024Y-5797654D01*
X24858930Y-5812070D01*
X24873346Y-5827976D01*
X24886134Y-5845219D01*
X24897170Y-5863632D01*
X24906349Y-5883038D01*
X24913581Y-5903250D01*
X24918797Y-5924074D01*
X24921947Y-5945309D01*
X24923000Y-5966750D01*
X24923000Y-6479250D01*
X24921947Y-6500691D01*
X24918797Y-6521926D01*
X24913581Y-6542750D01*
X24906349Y-6562962D01*
X24897170Y-6582368D01*
X24886134Y-6600781D01*
X24873346Y-6618024D01*
X24858930Y-6633930D01*
X24843024Y-6648346D01*
X24825781Y-6661134D01*
X24807368Y-6672170D01*
X24787962Y-6681349D01*
X24767750Y-6688581D01*
X24746926Y-6693797D01*
X24725691Y-6696947D01*
X24704250Y-6698000D01*
X24266750Y-6698000D01*
X24245309Y-6696947D01*
X24224074Y-6693797D01*
X24203250Y-6688581D01*
X24183038Y-6681349D01*
X24163632Y-6672170D01*
X24145219Y-6661134D01*
X24127976Y-6648346D01*
X24112070Y-6633930D01*
X24097654Y-6618024D01*
X24084866Y-6600781D01*
X24073830Y-6582368D01*
X24064651Y-6562962D01*
X24057419Y-6542750D01*
X24052203Y-6521926D01*
X24049053Y-6500691D01*
X24048000Y-6479250D01*
X24048000Y-5966750D01*
X24049053Y-5945309D01*
X24052203Y-5924074D01*
X24057419Y-5903250D01*
X24064651Y-5883038D01*
X24073830Y-5863632D01*
X24084866Y-5845219D01*
X24097654Y-5827976D01*
X24112070Y-5812070D01*
X24127976Y-5797654D01*
X24145219Y-5784866D01*
X24163632Y-5773830D01*
X24183038Y-5764651D01*
X24203250Y-5757419D01*
X24224074Y-5752203D01*
X24245309Y-5749053D01*
X24266750Y-5748000D01*
X24704250Y-5748000D01*
X24725691Y-5749053D01*
X24725691Y-5749053D01*
G37*
D13*
X24485500Y-6223000D03*
D12*
G36*
X3440691Y-5749053D02*
G01*
X3461926Y-5752203D01*
X3482750Y-5757419D01*
X3502962Y-5764651D01*
X3522368Y-5773830D01*
X3540781Y-5784866D01*
X3558024Y-5797654D01*
X3573930Y-5812070D01*
X3588346Y-5827976D01*
X3601134Y-5845219D01*
X3612170Y-5863632D01*
X3621349Y-5883038D01*
X3628581Y-5903250D01*
X3633797Y-5924074D01*
X3636947Y-5945309D01*
X3638000Y-5966750D01*
X3638000Y-6479250D01*
X3636947Y-6500691D01*
X3633797Y-6521926D01*
X3628581Y-6542750D01*
X3621349Y-6562962D01*
X3612170Y-6582368D01*
X3601134Y-6600781D01*
X3588346Y-6618024D01*
X3573930Y-6633930D01*
X3558024Y-6648346D01*
X3540781Y-6661134D01*
X3522368Y-6672170D01*
X3502962Y-6681349D01*
X3482750Y-6688581D01*
X3461926Y-6693797D01*
X3440691Y-6696947D01*
X3419250Y-6698000D01*
X2981750Y-6698000D01*
X2960309Y-6696947D01*
X2939074Y-6693797D01*
X2918250Y-6688581D01*
X2898038Y-6681349D01*
X2878632Y-6672170D01*
X2860219Y-6661134D01*
X2842976Y-6648346D01*
X2827070Y-6633930D01*
X2812654Y-6618024D01*
X2799866Y-6600781D01*
X2788830Y-6582368D01*
X2779651Y-6562962D01*
X2772419Y-6542750D01*
X2767203Y-6521926D01*
X2764053Y-6500691D01*
X2763000Y-6479250D01*
X2763000Y-5966750D01*
X2764053Y-5945309D01*
X2767203Y-5924074D01*
X2772419Y-5903250D01*
X2779651Y-5883038D01*
X2788830Y-5863632D01*
X2799866Y-5845219D01*
X2812654Y-5827976D01*
X2827070Y-5812070D01*
X2842976Y-5797654D01*
X2860219Y-5784866D01*
X2878632Y-5773830D01*
X2898038Y-5764651D01*
X2918250Y-5757419D01*
X2939074Y-5752203D01*
X2960309Y-5749053D01*
X2981750Y-5748000D01*
X3419250Y-5748000D01*
X3440691Y-5749053D01*
X3440691Y-5749053D01*
G37*
D13*
X3200500Y-6223000D03*
D12*
G36*
X1865691Y-5749053D02*
G01*
X1886926Y-5752203D01*
X1907750Y-5757419D01*
X1927962Y-5764651D01*
X1947368Y-5773830D01*
X1965781Y-5784866D01*
X1983024Y-5797654D01*
X1998930Y-5812070D01*
X2013346Y-5827976D01*
X2026134Y-5845219D01*
X2037170Y-5863632D01*
X2046349Y-5883038D01*
X2053581Y-5903250D01*
X2058797Y-5924074D01*
X2061947Y-5945309D01*
X2063000Y-5966750D01*
X2063000Y-6479250D01*
X2061947Y-6500691D01*
X2058797Y-6521926D01*
X2053581Y-6542750D01*
X2046349Y-6562962D01*
X2037170Y-6582368D01*
X2026134Y-6600781D01*
X2013346Y-6618024D01*
X1998930Y-6633930D01*
X1983024Y-6648346D01*
X1965781Y-6661134D01*
X1947368Y-6672170D01*
X1927962Y-6681349D01*
X1907750Y-6688581D01*
X1886926Y-6693797D01*
X1865691Y-6696947D01*
X1844250Y-6698000D01*
X1406750Y-6698000D01*
X1385309Y-6696947D01*
X1364074Y-6693797D01*
X1343250Y-6688581D01*
X1323038Y-6681349D01*
X1303632Y-6672170D01*
X1285219Y-6661134D01*
X1267976Y-6648346D01*
X1252070Y-6633930D01*
X1237654Y-6618024D01*
X1224866Y-6600781D01*
X1213830Y-6582368D01*
X1204651Y-6562962D01*
X1197419Y-6542750D01*
X1192203Y-6521926D01*
X1189053Y-6500691D01*
X1188000Y-6479250D01*
X1188000Y-5966750D01*
X1189053Y-5945309D01*
X1192203Y-5924074D01*
X1197419Y-5903250D01*
X1204651Y-5883038D01*
X1213830Y-5863632D01*
X1224866Y-5845219D01*
X1237654Y-5827976D01*
X1252070Y-5812070D01*
X1267976Y-5797654D01*
X1285219Y-5784866D01*
X1303632Y-5773830D01*
X1323038Y-5764651D01*
X1343250Y-5757419D01*
X1364074Y-5752203D01*
X1385309Y-5749053D01*
X1406750Y-5748000D01*
X1844250Y-5748000D01*
X1865691Y-5749053D01*
X1865691Y-5749053D01*
G37*
D13*
X1625500Y-6223000D03*
M02*
