G04 #@! TF.GenerationSoftware,KiCad,Pcbnew,5.1.4+dfsg1-1*
G04 #@! TF.CreationDate,2019-11-21T21:12:40-08:00*
G04 #@! TF.ProjectId,feather-wing-pmod,66656174-6865-4722-9d77-696e672d706d,rev?*
G04 #@! TF.SameCoordinates,PX791ddc0PY4d83c00*
G04 #@! TF.FileFunction,Copper,L2,Bot*
G04 #@! TF.FilePolarity,Positive*
%FSLAX46Y46*%
G04 Gerber Fmt 4.6, Leading zero omitted, Abs format (unit mm)*
G04 Created by KiCad (PCBNEW 5.1.4+dfsg1-1) date 2019-11-21 21:12:40*
%MOMM*%
%LPD*%
G04 APERTURE LIST*
%ADD10O,2.540000X1.700000*%
%ADD11O,1.700000X1.700000*%
%ADD12R,1.700000X1.700000*%
%ADD13C,3.200000*%
%ADD14C,0.800000*%
%ADD15C,1.000000*%
%ADD16C,0.250000*%
%ADD17C,0.254000*%
G04 APERTURE END LIST*
D10*
X46120000Y-17780000D03*
X42780000Y-17780000D03*
X46120000Y-15240000D03*
X42780000Y-15240000D03*
X46120000Y-12700000D03*
X42780000Y-12700000D03*
X46120000Y-10160000D03*
X42780000Y-10160000D03*
X46120000Y-7620000D03*
X42780000Y-7620000D03*
X46120000Y-5080000D03*
X42780000Y-5080000D03*
D11*
X44450000Y-1270000D03*
X41910000Y-1270000D03*
X39370000Y-1270000D03*
X36830000Y-1270000D03*
X34290000Y-1270000D03*
X31750000Y-1270000D03*
X29210000Y-1270000D03*
X26670000Y-1270000D03*
X24130000Y-1270000D03*
X21590000Y-1270000D03*
X19050000Y-1270000D03*
D12*
X16510000Y-1270000D03*
D11*
X44450000Y-21590000D03*
X41910000Y-21590000D03*
X39370000Y-21590000D03*
X36830000Y-21590000D03*
X34290000Y-21590000D03*
X31750000Y-21590000D03*
X29210000Y-21590000D03*
X26670000Y-21590000D03*
X24130000Y-21590000D03*
X21590000Y-21590000D03*
X19050000Y-21590000D03*
X16510000Y-21590000D03*
X13970000Y-21590000D03*
X11430000Y-21590000D03*
X8890000Y-21590000D03*
D12*
X6350000Y-21590000D03*
D13*
X2540000Y-2540000D03*
X2540000Y-20320000D03*
D14*
X3683000Y-11430000D03*
X26543000Y-11430000D03*
X8534500Y-2705000D03*
X38482711Y-18719001D03*
X34861500Y-19113500D03*
X30353000Y-18669000D03*
X27813000Y-17907000D03*
X21907500Y-17335500D03*
X20464878Y-17366979D03*
X19050000Y-17272000D03*
X17409233Y-17260975D03*
X24003000Y-11430000D03*
X38481000Y-3302000D03*
X30353000Y-3810000D03*
X48137653Y-3932347D03*
X36884489Y-19239978D03*
X5588000Y-3683000D03*
D15*
X43180000Y-15240000D02*
X45720000Y-15240000D01*
D16*
X39039001Y-18719001D02*
X38482711Y-18719001D01*
X41910000Y-21590000D02*
X39039001Y-18719001D01*
X37609499Y-19829499D02*
X38520001Y-20740001D01*
X38520001Y-20740001D02*
X39370000Y-21590000D01*
X35460026Y-18514974D02*
X37247474Y-18514974D01*
X34861500Y-19113500D02*
X35460026Y-18514974D01*
X37609499Y-18876999D02*
X37609499Y-19829499D01*
X37247474Y-18514974D02*
X37609499Y-18876999D01*
X29210000Y-19246315D02*
X29210000Y-20387919D01*
X29787315Y-18669000D02*
X29210000Y-19246315D01*
X29210000Y-20387919D02*
X29210000Y-21590000D01*
X30353000Y-18669000D02*
X29787315Y-18669000D01*
X26670000Y-19050000D02*
X26670000Y-21590000D01*
X27813000Y-17907000D02*
X26670000Y-19050000D01*
X21907500Y-19367500D02*
X24130000Y-21590000D01*
X21907500Y-17335500D02*
X21907500Y-19367500D01*
X21590000Y-21590000D02*
X20464878Y-20464878D01*
X20464878Y-20464878D02*
X20464878Y-17932664D01*
X20464878Y-17932664D02*
X20464878Y-17366979D01*
X19050000Y-17837685D02*
X19050000Y-21590000D01*
X19050000Y-17272000D02*
X19050000Y-17837685D01*
X16510000Y-18160208D02*
X17009234Y-17660974D01*
X17009234Y-17660974D02*
X17409233Y-17260975D01*
X16510000Y-21590000D02*
X16510000Y-18160208D01*
D15*
X43180000Y-17780000D02*
X45720000Y-17780000D01*
X24003000Y-14160500D02*
X24003000Y-11430000D01*
X37023687Y-15748000D02*
X25590500Y-15748000D01*
X43180000Y-17780000D02*
X39055687Y-17780000D01*
X25590500Y-15748000D02*
X24003000Y-14160500D01*
X39055687Y-17780000D02*
X37023687Y-15748000D01*
D16*
X31242000Y-3302000D02*
X29210000Y-1270000D01*
X38481000Y-3302000D02*
X31242000Y-3302000D01*
X27519999Y-2119999D02*
X26670000Y-1270000D01*
X28810001Y-3410001D02*
X27519999Y-2119999D01*
X29953001Y-3410001D02*
X28810001Y-3410001D01*
X30353000Y-3810000D02*
X29953001Y-3410001D01*
X47737654Y-3532348D02*
X44727652Y-3532348D01*
X44727652Y-3532348D02*
X43180000Y-5080000D01*
X48137653Y-3932347D02*
X47737654Y-3532348D01*
X36830000Y-21590000D02*
X36830000Y-19294467D01*
X36830000Y-19294467D02*
X36884489Y-19239978D01*
X6350000Y-20490000D02*
X6350000Y-21590000D01*
X3767000Y-17907000D02*
X6350000Y-20490000D01*
X1587500Y-17907000D02*
X3767000Y-17907000D01*
X4445000Y-4826000D02*
X1841500Y-4826000D01*
X1016000Y-17335500D02*
X1587500Y-17907000D01*
X1079500Y-5588000D02*
X1016000Y-17335500D01*
X5588000Y-3683000D02*
X4445000Y-4826000D01*
X1841500Y-4826000D02*
X1079500Y-5588000D01*
D17*
G36*
X15021928Y-2120000D02*
G01*
X15034188Y-2244482D01*
X15070498Y-2364180D01*
X15129463Y-2474494D01*
X15208815Y-2571185D01*
X15305506Y-2650537D01*
X15415820Y-2709502D01*
X15535518Y-2745812D01*
X15660000Y-2758072D01*
X17360000Y-2758072D01*
X17484482Y-2745812D01*
X17604180Y-2709502D01*
X17714494Y-2650537D01*
X17811185Y-2571185D01*
X17890537Y-2474494D01*
X17949502Y-2364180D01*
X17970393Y-2295313D01*
X17994866Y-2325134D01*
X18220986Y-2510706D01*
X18478966Y-2648599D01*
X18758889Y-2733513D01*
X18977050Y-2755000D01*
X19122950Y-2755000D01*
X19341111Y-2733513D01*
X19621034Y-2648599D01*
X19879014Y-2510706D01*
X20105134Y-2325134D01*
X20290706Y-2099014D01*
X20320000Y-2044209D01*
X20349294Y-2099014D01*
X20534866Y-2325134D01*
X20760986Y-2510706D01*
X21018966Y-2648599D01*
X21298889Y-2733513D01*
X21517050Y-2755000D01*
X21662950Y-2755000D01*
X21881111Y-2733513D01*
X22161034Y-2648599D01*
X22419014Y-2510706D01*
X22645134Y-2325134D01*
X22830706Y-2099014D01*
X22860000Y-2044209D01*
X22889294Y-2099014D01*
X23074866Y-2325134D01*
X23300986Y-2510706D01*
X23558966Y-2648599D01*
X23838889Y-2733513D01*
X24057050Y-2755000D01*
X24202950Y-2755000D01*
X24421111Y-2733513D01*
X24701034Y-2648599D01*
X24959014Y-2510706D01*
X25185134Y-2325134D01*
X25370706Y-2099014D01*
X25400000Y-2044209D01*
X25429294Y-2099014D01*
X25614866Y-2325134D01*
X25840986Y-2510706D01*
X26098966Y-2648599D01*
X26378889Y-2733513D01*
X26597050Y-2755000D01*
X26742950Y-2755000D01*
X26961111Y-2733513D01*
X27035996Y-2710797D01*
X28246201Y-3921003D01*
X28270000Y-3950002D01*
X28385725Y-4044975D01*
X28517754Y-4115547D01*
X28661015Y-4159004D01*
X28772668Y-4170001D01*
X28772677Y-4170001D01*
X28810000Y-4173677D01*
X28847323Y-4170001D01*
X29381841Y-4170001D01*
X29435795Y-4300256D01*
X29549063Y-4469774D01*
X29693226Y-4613937D01*
X29862744Y-4727205D01*
X30051102Y-4805226D01*
X30251061Y-4845000D01*
X30454939Y-4845000D01*
X30654898Y-4805226D01*
X30843256Y-4727205D01*
X31012774Y-4613937D01*
X31156937Y-4469774D01*
X31270205Y-4300256D01*
X31348226Y-4111898D01*
X31358151Y-4062000D01*
X37777289Y-4062000D01*
X37821226Y-4105937D01*
X37990744Y-4219205D01*
X38179102Y-4297226D01*
X38379061Y-4337000D01*
X38582939Y-4337000D01*
X38782898Y-4297226D01*
X38971256Y-4219205D01*
X39140774Y-4105937D01*
X39284937Y-3961774D01*
X39398205Y-3792256D01*
X39476226Y-3603898D01*
X39516000Y-3403939D01*
X39516000Y-3200061D01*
X39476226Y-3000102D01*
X39398205Y-2811744D01*
X39360290Y-2755000D01*
X39442950Y-2755000D01*
X39661111Y-2733513D01*
X39941034Y-2648599D01*
X40199014Y-2510706D01*
X40425134Y-2325134D01*
X40610706Y-2099014D01*
X40640000Y-2044209D01*
X40669294Y-2099014D01*
X40854866Y-2325134D01*
X41080986Y-2510706D01*
X41338966Y-2648599D01*
X41618889Y-2733513D01*
X41837050Y-2755000D01*
X41982950Y-2755000D01*
X42201111Y-2733513D01*
X42481034Y-2648599D01*
X42739014Y-2510706D01*
X42965134Y-2325134D01*
X43150706Y-2099014D01*
X43180000Y-2044209D01*
X43209294Y-2099014D01*
X43394866Y-2325134D01*
X43620986Y-2510706D01*
X43878966Y-2648599D01*
X44158889Y-2733513D01*
X44377050Y-2755000D01*
X44522950Y-2755000D01*
X44741111Y-2733513D01*
X45021034Y-2648599D01*
X45279014Y-2510706D01*
X45505134Y-2325134D01*
X45690706Y-2099014D01*
X45828599Y-1841034D01*
X45913513Y-1561111D01*
X45942185Y-1270000D01*
X45913513Y-978889D01*
X45831946Y-710000D01*
X47001339Y-710000D01*
X46912337Y-799002D01*
X46722463Y-1083169D01*
X46591675Y-1398919D01*
X46525000Y-1734117D01*
X46525000Y-2075883D01*
X46591675Y-2411081D01*
X46722463Y-2726831D01*
X46752876Y-2772348D01*
X44764974Y-2772348D01*
X44727651Y-2768672D01*
X44690328Y-2772348D01*
X44690319Y-2772348D01*
X44578666Y-2783345D01*
X44435405Y-2826802D01*
X44303376Y-2897374D01*
X44303374Y-2897375D01*
X44303375Y-2897375D01*
X44216648Y-2968549D01*
X44216644Y-2968553D01*
X44187651Y-2992347D01*
X44163857Y-3021340D01*
X43550650Y-3634548D01*
X43491111Y-3616487D01*
X43272950Y-3595000D01*
X42287050Y-3595000D01*
X42068889Y-3616487D01*
X41788966Y-3701401D01*
X41530986Y-3839294D01*
X41304866Y-4024866D01*
X41119294Y-4250986D01*
X40981401Y-4508966D01*
X40896487Y-4788889D01*
X40867815Y-5080000D01*
X40896487Y-5371111D01*
X40981401Y-5651034D01*
X41119294Y-5909014D01*
X41304866Y-6135134D01*
X41530986Y-6320706D01*
X41585791Y-6350000D01*
X41530986Y-6379294D01*
X41304866Y-6564866D01*
X41119294Y-6790986D01*
X40981401Y-7048966D01*
X40896487Y-7328889D01*
X40867815Y-7620000D01*
X40896487Y-7911111D01*
X40981401Y-8191034D01*
X41119294Y-8449014D01*
X41304866Y-8675134D01*
X41530986Y-8860706D01*
X41585791Y-8890000D01*
X41530986Y-8919294D01*
X41304866Y-9104866D01*
X41119294Y-9330986D01*
X40981401Y-9588966D01*
X40896487Y-9868889D01*
X40867815Y-10160000D01*
X40896487Y-10451111D01*
X40981401Y-10731034D01*
X41119294Y-10989014D01*
X41304866Y-11215134D01*
X41530986Y-11400706D01*
X41585791Y-11430000D01*
X41530986Y-11459294D01*
X41304866Y-11644866D01*
X41119294Y-11870986D01*
X40981401Y-12128966D01*
X40896487Y-12408889D01*
X40867815Y-12700000D01*
X40896487Y-12991111D01*
X40981401Y-13271034D01*
X41119294Y-13529014D01*
X41304866Y-13755134D01*
X41530986Y-13940706D01*
X41589337Y-13971895D01*
X41429381Y-14075824D01*
X41220143Y-14279748D01*
X41054709Y-14520574D01*
X40939437Y-14789047D01*
X40918524Y-14883110D01*
X41039845Y-15113000D01*
X42653000Y-15113000D01*
X42653000Y-15093000D01*
X42907000Y-15093000D01*
X42907000Y-15113000D01*
X45993000Y-15113000D01*
X45993000Y-15093000D01*
X46247000Y-15093000D01*
X46247000Y-15113000D01*
X47860155Y-15113000D01*
X47981476Y-14883110D01*
X47960563Y-14789047D01*
X47845291Y-14520574D01*
X47679857Y-14279748D01*
X47470619Y-14075824D01*
X47310663Y-13971895D01*
X47369014Y-13940706D01*
X47595134Y-13755134D01*
X47780706Y-13529014D01*
X47918599Y-13271034D01*
X48003513Y-12991111D01*
X48032185Y-12700000D01*
X48003513Y-12408889D01*
X47918599Y-12128966D01*
X47780706Y-11870986D01*
X47595134Y-11644866D01*
X47369014Y-11459294D01*
X47314209Y-11430000D01*
X47369014Y-11400706D01*
X47595134Y-11215134D01*
X47780706Y-10989014D01*
X47918599Y-10731034D01*
X48003513Y-10451111D01*
X48032185Y-10160000D01*
X48003513Y-9868889D01*
X47918599Y-9588966D01*
X47780706Y-9330986D01*
X47595134Y-9104866D01*
X47369014Y-8919294D01*
X47314209Y-8890000D01*
X47369014Y-8860706D01*
X47595134Y-8675134D01*
X47780706Y-8449014D01*
X47918599Y-8191034D01*
X48003513Y-7911111D01*
X48032185Y-7620000D01*
X48003513Y-7328889D01*
X47918599Y-7048966D01*
X47780706Y-6790986D01*
X47595134Y-6564866D01*
X47369014Y-6379294D01*
X47314209Y-6350000D01*
X47369014Y-6320706D01*
X47595134Y-6135134D01*
X47780706Y-5909014D01*
X47918599Y-5651034D01*
X48003513Y-5371111D01*
X48032185Y-5080000D01*
X48020797Y-4964380D01*
X48035714Y-4967347D01*
X48239592Y-4967347D01*
X48439551Y-4927573D01*
X48627909Y-4849552D01*
X48797427Y-4736284D01*
X48941590Y-4592121D01*
X49054858Y-4422603D01*
X49132879Y-4234245D01*
X49172653Y-4034286D01*
X49172653Y-3830408D01*
X49132879Y-3630449D01*
X49058966Y-3452008D01*
X49081831Y-3442537D01*
X49365998Y-3252663D01*
X49607663Y-3010998D01*
X49797537Y-2726831D01*
X49928325Y-2411081D01*
X49995000Y-2075883D01*
X49995000Y-1997338D01*
X50049286Y-2172708D01*
X50090001Y-2560082D01*
X50090000Y-20285280D01*
X50051809Y-20674784D01*
X49995000Y-20862944D01*
X49995000Y-20784117D01*
X49928325Y-20448919D01*
X49797537Y-20133169D01*
X49607663Y-19849002D01*
X49365998Y-19607337D01*
X49081831Y-19417463D01*
X48766081Y-19286675D01*
X48430883Y-19220000D01*
X48089117Y-19220000D01*
X47753919Y-19286675D01*
X47438169Y-19417463D01*
X47154002Y-19607337D01*
X46912337Y-19849002D01*
X46722463Y-20133169D01*
X46591675Y-20448919D01*
X46525000Y-20784117D01*
X46525000Y-21125883D01*
X46591675Y-21461081D01*
X46722463Y-21776831D01*
X46912337Y-22060998D01*
X47001339Y-22150000D01*
X45831946Y-22150000D01*
X45913513Y-21881111D01*
X45942185Y-21590000D01*
X45913513Y-21298889D01*
X45828599Y-21018966D01*
X45690706Y-20760986D01*
X45505134Y-20534866D01*
X45279014Y-20349294D01*
X45021034Y-20211401D01*
X44741111Y-20126487D01*
X44522950Y-20105000D01*
X44377050Y-20105000D01*
X44158889Y-20126487D01*
X43878966Y-20211401D01*
X43620986Y-20349294D01*
X43394866Y-20534866D01*
X43209294Y-20760986D01*
X43180000Y-20815791D01*
X43150706Y-20760986D01*
X42965134Y-20534866D01*
X42739014Y-20349294D01*
X42481034Y-20211401D01*
X42201111Y-20126487D01*
X41982950Y-20105000D01*
X41837050Y-20105000D01*
X41618889Y-20126487D01*
X41544005Y-20149203D01*
X40309801Y-18915000D01*
X41402183Y-18915000D01*
X41530986Y-19020706D01*
X41788966Y-19158599D01*
X42068889Y-19243513D01*
X42287050Y-19265000D01*
X43272950Y-19265000D01*
X43491111Y-19243513D01*
X43771034Y-19158599D01*
X44029014Y-19020706D01*
X44157817Y-18915000D01*
X44742183Y-18915000D01*
X44870986Y-19020706D01*
X45128966Y-19158599D01*
X45408889Y-19243513D01*
X45627050Y-19265000D01*
X46612950Y-19265000D01*
X46831111Y-19243513D01*
X47111034Y-19158599D01*
X47369014Y-19020706D01*
X47595134Y-18835134D01*
X47780706Y-18609014D01*
X47918599Y-18351034D01*
X48003513Y-18071111D01*
X48032185Y-17780000D01*
X48003513Y-17488889D01*
X47918599Y-17208966D01*
X47780706Y-16950986D01*
X47595134Y-16724866D01*
X47369014Y-16539294D01*
X47310663Y-16508105D01*
X47470619Y-16404176D01*
X47679857Y-16200252D01*
X47845291Y-15959426D01*
X47960563Y-15690953D01*
X47981476Y-15596890D01*
X47860155Y-15367000D01*
X46247000Y-15367000D01*
X46247000Y-15387000D01*
X45993000Y-15387000D01*
X45993000Y-15367000D01*
X42907000Y-15367000D01*
X42907000Y-15387000D01*
X42653000Y-15387000D01*
X42653000Y-15367000D01*
X41039845Y-15367000D01*
X40918524Y-15596890D01*
X40939437Y-15690953D01*
X41054709Y-15959426D01*
X41220143Y-16200252D01*
X41429381Y-16404176D01*
X41589337Y-16508105D01*
X41530986Y-16539294D01*
X41402183Y-16645000D01*
X39525819Y-16645000D01*
X37865683Y-14984865D01*
X37830136Y-14941551D01*
X37657310Y-14799716D01*
X37460134Y-14694324D01*
X37246186Y-14629423D01*
X37079439Y-14613000D01*
X37079438Y-14613000D01*
X37023687Y-14607509D01*
X36967936Y-14613000D01*
X26060632Y-14613000D01*
X25138000Y-13690369D01*
X25138000Y-11374248D01*
X25121577Y-11207501D01*
X25056676Y-10993553D01*
X24951284Y-10796377D01*
X24809449Y-10623551D01*
X24636623Y-10481716D01*
X24439447Y-10376324D01*
X24225499Y-10311423D01*
X24003000Y-10289509D01*
X23780502Y-10311423D01*
X23566554Y-10376324D01*
X23369378Y-10481716D01*
X23196552Y-10623551D01*
X23054717Y-10796377D01*
X22949325Y-10993553D01*
X22884424Y-11207501D01*
X22868001Y-11374248D01*
X22868000Y-14104748D01*
X22862509Y-14160500D01*
X22868000Y-14216251D01*
X22884423Y-14382998D01*
X22949324Y-14596946D01*
X23054716Y-14794123D01*
X23196551Y-14966949D01*
X23239865Y-15002496D01*
X24748509Y-16511140D01*
X24784051Y-16554449D01*
X24956877Y-16696284D01*
X25116763Y-16781744D01*
X25154053Y-16801676D01*
X25368001Y-16866577D01*
X25590499Y-16888491D01*
X25646251Y-16883000D01*
X27655760Y-16883000D01*
X27511102Y-16911774D01*
X27322744Y-16989795D01*
X27153226Y-17103063D01*
X27009063Y-17247226D01*
X26895795Y-17416744D01*
X26817774Y-17605102D01*
X26778000Y-17805061D01*
X26778000Y-17867198D01*
X26159002Y-18486196D01*
X26129999Y-18509999D01*
X26083170Y-18567061D01*
X26035026Y-18625724D01*
X25980207Y-18728283D01*
X25964454Y-18757754D01*
X25920997Y-18901015D01*
X25910000Y-19012668D01*
X25910000Y-19012678D01*
X25906324Y-19050000D01*
X25910000Y-19087323D01*
X25910000Y-20312405D01*
X25840986Y-20349294D01*
X25614866Y-20534866D01*
X25429294Y-20760986D01*
X25400000Y-20815791D01*
X25370706Y-20760986D01*
X25185134Y-20534866D01*
X24959014Y-20349294D01*
X24701034Y-20211401D01*
X24421111Y-20126487D01*
X24202950Y-20105000D01*
X24057050Y-20105000D01*
X23838889Y-20126487D01*
X23764005Y-20149203D01*
X22667500Y-19052699D01*
X22667500Y-18039211D01*
X22711437Y-17995274D01*
X22824705Y-17825756D01*
X22902726Y-17637398D01*
X22942500Y-17437439D01*
X22942500Y-17233561D01*
X22902726Y-17033602D01*
X22824705Y-16845244D01*
X22711437Y-16675726D01*
X22567274Y-16531563D01*
X22397756Y-16418295D01*
X22209398Y-16340274D01*
X22009439Y-16300500D01*
X21805561Y-16300500D01*
X21605602Y-16340274D01*
X21417244Y-16418295D01*
X21247726Y-16531563D01*
X21170450Y-16608840D01*
X21124652Y-16563042D01*
X20955134Y-16449774D01*
X20766776Y-16371753D01*
X20566817Y-16331979D01*
X20362939Y-16331979D01*
X20162980Y-16371753D01*
X19974622Y-16449774D01*
X19805104Y-16563042D01*
X19804929Y-16563218D01*
X19709774Y-16468063D01*
X19540256Y-16354795D01*
X19351898Y-16276774D01*
X19151939Y-16237000D01*
X18948061Y-16237000D01*
X18748102Y-16276774D01*
X18559744Y-16354795D01*
X18390226Y-16468063D01*
X18246063Y-16612226D01*
X18233300Y-16631327D01*
X18213170Y-16601201D01*
X18069007Y-16457038D01*
X17899489Y-16343770D01*
X17711131Y-16265749D01*
X17511172Y-16225975D01*
X17307294Y-16225975D01*
X17107335Y-16265749D01*
X16918977Y-16343770D01*
X16749459Y-16457038D01*
X16605296Y-16601201D01*
X16492028Y-16770719D01*
X16414007Y-16959077D01*
X16374233Y-17159036D01*
X16374233Y-17221173D01*
X15998998Y-17596409D01*
X15970000Y-17620207D01*
X15946202Y-17649205D01*
X15946201Y-17649206D01*
X15875026Y-17735932D01*
X15804454Y-17867962D01*
X15788670Y-17919997D01*
X15760998Y-18011222D01*
X15754061Y-18081650D01*
X15746324Y-18160208D01*
X15750001Y-18197540D01*
X15750000Y-20312405D01*
X15680986Y-20349294D01*
X15454866Y-20534866D01*
X15269294Y-20760986D01*
X15234799Y-20825523D01*
X15165178Y-20708645D01*
X14970269Y-20492412D01*
X14736920Y-20318359D01*
X14474099Y-20193175D01*
X14326890Y-20148524D01*
X14097000Y-20269845D01*
X14097000Y-21463000D01*
X14117000Y-21463000D01*
X14117000Y-21717000D01*
X14097000Y-21717000D01*
X14097000Y-21737000D01*
X13843000Y-21737000D01*
X13843000Y-21717000D01*
X13823000Y-21717000D01*
X13823000Y-21463000D01*
X13843000Y-21463000D01*
X13843000Y-20269845D01*
X13613110Y-20148524D01*
X13465901Y-20193175D01*
X13203080Y-20318359D01*
X12969731Y-20492412D01*
X12774822Y-20708645D01*
X12705201Y-20825523D01*
X12670706Y-20760986D01*
X12485134Y-20534866D01*
X12259014Y-20349294D01*
X12001034Y-20211401D01*
X11721111Y-20126487D01*
X11502950Y-20105000D01*
X11357050Y-20105000D01*
X11138889Y-20126487D01*
X10858966Y-20211401D01*
X10600986Y-20349294D01*
X10374866Y-20534866D01*
X10189294Y-20760986D01*
X10160000Y-20815791D01*
X10130706Y-20760986D01*
X9945134Y-20534866D01*
X9719014Y-20349294D01*
X9461034Y-20211401D01*
X9181111Y-20126487D01*
X8962950Y-20105000D01*
X8817050Y-20105000D01*
X8598889Y-20126487D01*
X8318966Y-20211401D01*
X8060986Y-20349294D01*
X7834866Y-20534866D01*
X7810393Y-20564687D01*
X7789502Y-20495820D01*
X7730537Y-20385506D01*
X7651185Y-20288815D01*
X7554494Y-20209463D01*
X7444180Y-20150498D01*
X7324482Y-20114188D01*
X7200000Y-20101928D01*
X7004326Y-20101928D01*
X6984974Y-20065724D01*
X6890001Y-19949999D01*
X6861004Y-19926202D01*
X4330804Y-17396003D01*
X4307001Y-17366999D01*
X4191276Y-17272026D01*
X4059247Y-17201454D01*
X3915986Y-17157997D01*
X3804333Y-17147000D01*
X3804322Y-17147000D01*
X3767000Y-17143324D01*
X3729678Y-17147000D01*
X1902302Y-17147000D01*
X1777703Y-17022402D01*
X1837800Y-5904502D01*
X2156302Y-5586000D01*
X4407678Y-5586000D01*
X4445000Y-5589676D01*
X4482322Y-5586000D01*
X4482333Y-5586000D01*
X4593986Y-5575003D01*
X4737247Y-5531546D01*
X4869276Y-5460974D01*
X4985001Y-5366001D01*
X5008804Y-5336998D01*
X5627802Y-4718000D01*
X5689939Y-4718000D01*
X5889898Y-4678226D01*
X6078256Y-4600205D01*
X6247774Y-4486937D01*
X6391937Y-4342774D01*
X6505205Y-4173256D01*
X6583226Y-3984898D01*
X6623000Y-3784939D01*
X6623000Y-3581061D01*
X6583226Y-3381102D01*
X6505205Y-3192744D01*
X6391937Y-3023226D01*
X6247774Y-2879063D01*
X6078256Y-2765795D01*
X5889898Y-2687774D01*
X5689939Y-2648000D01*
X5486061Y-2648000D01*
X5286102Y-2687774D01*
X5097744Y-2765795D01*
X4928226Y-2879063D01*
X4784063Y-3023226D01*
X4696641Y-3154062D01*
X4775000Y-2760128D01*
X4775000Y-2319872D01*
X4689110Y-1888075D01*
X4520631Y-1481331D01*
X4276038Y-1115271D01*
X3964729Y-803962D01*
X3824105Y-710000D01*
X15021928Y-710000D01*
X15021928Y-2120000D01*
X15021928Y-2120000D01*
G37*
X15021928Y-2120000D02*
X15034188Y-2244482D01*
X15070498Y-2364180D01*
X15129463Y-2474494D01*
X15208815Y-2571185D01*
X15305506Y-2650537D01*
X15415820Y-2709502D01*
X15535518Y-2745812D01*
X15660000Y-2758072D01*
X17360000Y-2758072D01*
X17484482Y-2745812D01*
X17604180Y-2709502D01*
X17714494Y-2650537D01*
X17811185Y-2571185D01*
X17890537Y-2474494D01*
X17949502Y-2364180D01*
X17970393Y-2295313D01*
X17994866Y-2325134D01*
X18220986Y-2510706D01*
X18478966Y-2648599D01*
X18758889Y-2733513D01*
X18977050Y-2755000D01*
X19122950Y-2755000D01*
X19341111Y-2733513D01*
X19621034Y-2648599D01*
X19879014Y-2510706D01*
X20105134Y-2325134D01*
X20290706Y-2099014D01*
X20320000Y-2044209D01*
X20349294Y-2099014D01*
X20534866Y-2325134D01*
X20760986Y-2510706D01*
X21018966Y-2648599D01*
X21298889Y-2733513D01*
X21517050Y-2755000D01*
X21662950Y-2755000D01*
X21881111Y-2733513D01*
X22161034Y-2648599D01*
X22419014Y-2510706D01*
X22645134Y-2325134D01*
X22830706Y-2099014D01*
X22860000Y-2044209D01*
X22889294Y-2099014D01*
X23074866Y-2325134D01*
X23300986Y-2510706D01*
X23558966Y-2648599D01*
X23838889Y-2733513D01*
X24057050Y-2755000D01*
X24202950Y-2755000D01*
X24421111Y-2733513D01*
X24701034Y-2648599D01*
X24959014Y-2510706D01*
X25185134Y-2325134D01*
X25370706Y-2099014D01*
X25400000Y-2044209D01*
X25429294Y-2099014D01*
X25614866Y-2325134D01*
X25840986Y-2510706D01*
X26098966Y-2648599D01*
X26378889Y-2733513D01*
X26597050Y-2755000D01*
X26742950Y-2755000D01*
X26961111Y-2733513D01*
X27035996Y-2710797D01*
X28246201Y-3921003D01*
X28270000Y-3950002D01*
X28385725Y-4044975D01*
X28517754Y-4115547D01*
X28661015Y-4159004D01*
X28772668Y-4170001D01*
X28772677Y-4170001D01*
X28810000Y-4173677D01*
X28847323Y-4170001D01*
X29381841Y-4170001D01*
X29435795Y-4300256D01*
X29549063Y-4469774D01*
X29693226Y-4613937D01*
X29862744Y-4727205D01*
X30051102Y-4805226D01*
X30251061Y-4845000D01*
X30454939Y-4845000D01*
X30654898Y-4805226D01*
X30843256Y-4727205D01*
X31012774Y-4613937D01*
X31156937Y-4469774D01*
X31270205Y-4300256D01*
X31348226Y-4111898D01*
X31358151Y-4062000D01*
X37777289Y-4062000D01*
X37821226Y-4105937D01*
X37990744Y-4219205D01*
X38179102Y-4297226D01*
X38379061Y-4337000D01*
X38582939Y-4337000D01*
X38782898Y-4297226D01*
X38971256Y-4219205D01*
X39140774Y-4105937D01*
X39284937Y-3961774D01*
X39398205Y-3792256D01*
X39476226Y-3603898D01*
X39516000Y-3403939D01*
X39516000Y-3200061D01*
X39476226Y-3000102D01*
X39398205Y-2811744D01*
X39360290Y-2755000D01*
X39442950Y-2755000D01*
X39661111Y-2733513D01*
X39941034Y-2648599D01*
X40199014Y-2510706D01*
X40425134Y-2325134D01*
X40610706Y-2099014D01*
X40640000Y-2044209D01*
X40669294Y-2099014D01*
X40854866Y-2325134D01*
X41080986Y-2510706D01*
X41338966Y-2648599D01*
X41618889Y-2733513D01*
X41837050Y-2755000D01*
X41982950Y-2755000D01*
X42201111Y-2733513D01*
X42481034Y-2648599D01*
X42739014Y-2510706D01*
X42965134Y-2325134D01*
X43150706Y-2099014D01*
X43180000Y-2044209D01*
X43209294Y-2099014D01*
X43394866Y-2325134D01*
X43620986Y-2510706D01*
X43878966Y-2648599D01*
X44158889Y-2733513D01*
X44377050Y-2755000D01*
X44522950Y-2755000D01*
X44741111Y-2733513D01*
X45021034Y-2648599D01*
X45279014Y-2510706D01*
X45505134Y-2325134D01*
X45690706Y-2099014D01*
X45828599Y-1841034D01*
X45913513Y-1561111D01*
X45942185Y-1270000D01*
X45913513Y-978889D01*
X45831946Y-710000D01*
X47001339Y-710000D01*
X46912337Y-799002D01*
X46722463Y-1083169D01*
X46591675Y-1398919D01*
X46525000Y-1734117D01*
X46525000Y-2075883D01*
X46591675Y-2411081D01*
X46722463Y-2726831D01*
X46752876Y-2772348D01*
X44764974Y-2772348D01*
X44727651Y-2768672D01*
X44690328Y-2772348D01*
X44690319Y-2772348D01*
X44578666Y-2783345D01*
X44435405Y-2826802D01*
X44303376Y-2897374D01*
X44303374Y-2897375D01*
X44303375Y-2897375D01*
X44216648Y-2968549D01*
X44216644Y-2968553D01*
X44187651Y-2992347D01*
X44163857Y-3021340D01*
X43550650Y-3634548D01*
X43491111Y-3616487D01*
X43272950Y-3595000D01*
X42287050Y-3595000D01*
X42068889Y-3616487D01*
X41788966Y-3701401D01*
X41530986Y-3839294D01*
X41304866Y-4024866D01*
X41119294Y-4250986D01*
X40981401Y-4508966D01*
X40896487Y-4788889D01*
X40867815Y-5080000D01*
X40896487Y-5371111D01*
X40981401Y-5651034D01*
X41119294Y-5909014D01*
X41304866Y-6135134D01*
X41530986Y-6320706D01*
X41585791Y-6350000D01*
X41530986Y-6379294D01*
X41304866Y-6564866D01*
X41119294Y-6790986D01*
X40981401Y-7048966D01*
X40896487Y-7328889D01*
X40867815Y-7620000D01*
X40896487Y-7911111D01*
X40981401Y-8191034D01*
X41119294Y-8449014D01*
X41304866Y-8675134D01*
X41530986Y-8860706D01*
X41585791Y-8890000D01*
X41530986Y-8919294D01*
X41304866Y-9104866D01*
X41119294Y-9330986D01*
X40981401Y-9588966D01*
X40896487Y-9868889D01*
X40867815Y-10160000D01*
X40896487Y-10451111D01*
X40981401Y-10731034D01*
X41119294Y-10989014D01*
X41304866Y-11215134D01*
X41530986Y-11400706D01*
X41585791Y-11430000D01*
X41530986Y-11459294D01*
X41304866Y-11644866D01*
X41119294Y-11870986D01*
X40981401Y-12128966D01*
X40896487Y-12408889D01*
X40867815Y-12700000D01*
X40896487Y-12991111D01*
X40981401Y-13271034D01*
X41119294Y-13529014D01*
X41304866Y-13755134D01*
X41530986Y-13940706D01*
X41589337Y-13971895D01*
X41429381Y-14075824D01*
X41220143Y-14279748D01*
X41054709Y-14520574D01*
X40939437Y-14789047D01*
X40918524Y-14883110D01*
X41039845Y-15113000D01*
X42653000Y-15113000D01*
X42653000Y-15093000D01*
X42907000Y-15093000D01*
X42907000Y-15113000D01*
X45993000Y-15113000D01*
X45993000Y-15093000D01*
X46247000Y-15093000D01*
X46247000Y-15113000D01*
X47860155Y-15113000D01*
X47981476Y-14883110D01*
X47960563Y-14789047D01*
X47845291Y-14520574D01*
X47679857Y-14279748D01*
X47470619Y-14075824D01*
X47310663Y-13971895D01*
X47369014Y-13940706D01*
X47595134Y-13755134D01*
X47780706Y-13529014D01*
X47918599Y-13271034D01*
X48003513Y-12991111D01*
X48032185Y-12700000D01*
X48003513Y-12408889D01*
X47918599Y-12128966D01*
X47780706Y-11870986D01*
X47595134Y-11644866D01*
X47369014Y-11459294D01*
X47314209Y-11430000D01*
X47369014Y-11400706D01*
X47595134Y-11215134D01*
X47780706Y-10989014D01*
X47918599Y-10731034D01*
X48003513Y-10451111D01*
X48032185Y-10160000D01*
X48003513Y-9868889D01*
X47918599Y-9588966D01*
X47780706Y-9330986D01*
X47595134Y-9104866D01*
X47369014Y-8919294D01*
X47314209Y-8890000D01*
X47369014Y-8860706D01*
X47595134Y-8675134D01*
X47780706Y-8449014D01*
X47918599Y-8191034D01*
X48003513Y-7911111D01*
X48032185Y-7620000D01*
X48003513Y-7328889D01*
X47918599Y-7048966D01*
X47780706Y-6790986D01*
X47595134Y-6564866D01*
X47369014Y-6379294D01*
X47314209Y-6350000D01*
X47369014Y-6320706D01*
X47595134Y-6135134D01*
X47780706Y-5909014D01*
X47918599Y-5651034D01*
X48003513Y-5371111D01*
X48032185Y-5080000D01*
X48020797Y-4964380D01*
X48035714Y-4967347D01*
X48239592Y-4967347D01*
X48439551Y-4927573D01*
X48627909Y-4849552D01*
X48797427Y-4736284D01*
X48941590Y-4592121D01*
X49054858Y-4422603D01*
X49132879Y-4234245D01*
X49172653Y-4034286D01*
X49172653Y-3830408D01*
X49132879Y-3630449D01*
X49058966Y-3452008D01*
X49081831Y-3442537D01*
X49365998Y-3252663D01*
X49607663Y-3010998D01*
X49797537Y-2726831D01*
X49928325Y-2411081D01*
X49995000Y-2075883D01*
X49995000Y-1997338D01*
X50049286Y-2172708D01*
X50090001Y-2560082D01*
X50090000Y-20285280D01*
X50051809Y-20674784D01*
X49995000Y-20862944D01*
X49995000Y-20784117D01*
X49928325Y-20448919D01*
X49797537Y-20133169D01*
X49607663Y-19849002D01*
X49365998Y-19607337D01*
X49081831Y-19417463D01*
X48766081Y-19286675D01*
X48430883Y-19220000D01*
X48089117Y-19220000D01*
X47753919Y-19286675D01*
X47438169Y-19417463D01*
X47154002Y-19607337D01*
X46912337Y-19849002D01*
X46722463Y-20133169D01*
X46591675Y-20448919D01*
X46525000Y-20784117D01*
X46525000Y-21125883D01*
X46591675Y-21461081D01*
X46722463Y-21776831D01*
X46912337Y-22060998D01*
X47001339Y-22150000D01*
X45831946Y-22150000D01*
X45913513Y-21881111D01*
X45942185Y-21590000D01*
X45913513Y-21298889D01*
X45828599Y-21018966D01*
X45690706Y-20760986D01*
X45505134Y-20534866D01*
X45279014Y-20349294D01*
X45021034Y-20211401D01*
X44741111Y-20126487D01*
X44522950Y-20105000D01*
X44377050Y-20105000D01*
X44158889Y-20126487D01*
X43878966Y-20211401D01*
X43620986Y-20349294D01*
X43394866Y-20534866D01*
X43209294Y-20760986D01*
X43180000Y-20815791D01*
X43150706Y-20760986D01*
X42965134Y-20534866D01*
X42739014Y-20349294D01*
X42481034Y-20211401D01*
X42201111Y-20126487D01*
X41982950Y-20105000D01*
X41837050Y-20105000D01*
X41618889Y-20126487D01*
X41544005Y-20149203D01*
X40309801Y-18915000D01*
X41402183Y-18915000D01*
X41530986Y-19020706D01*
X41788966Y-19158599D01*
X42068889Y-19243513D01*
X42287050Y-19265000D01*
X43272950Y-19265000D01*
X43491111Y-19243513D01*
X43771034Y-19158599D01*
X44029014Y-19020706D01*
X44157817Y-18915000D01*
X44742183Y-18915000D01*
X44870986Y-19020706D01*
X45128966Y-19158599D01*
X45408889Y-19243513D01*
X45627050Y-19265000D01*
X46612950Y-19265000D01*
X46831111Y-19243513D01*
X47111034Y-19158599D01*
X47369014Y-19020706D01*
X47595134Y-18835134D01*
X47780706Y-18609014D01*
X47918599Y-18351034D01*
X48003513Y-18071111D01*
X48032185Y-17780000D01*
X48003513Y-17488889D01*
X47918599Y-17208966D01*
X47780706Y-16950986D01*
X47595134Y-16724866D01*
X47369014Y-16539294D01*
X47310663Y-16508105D01*
X47470619Y-16404176D01*
X47679857Y-16200252D01*
X47845291Y-15959426D01*
X47960563Y-15690953D01*
X47981476Y-15596890D01*
X47860155Y-15367000D01*
X46247000Y-15367000D01*
X46247000Y-15387000D01*
X45993000Y-15387000D01*
X45993000Y-15367000D01*
X42907000Y-15367000D01*
X42907000Y-15387000D01*
X42653000Y-15387000D01*
X42653000Y-15367000D01*
X41039845Y-15367000D01*
X40918524Y-15596890D01*
X40939437Y-15690953D01*
X41054709Y-15959426D01*
X41220143Y-16200252D01*
X41429381Y-16404176D01*
X41589337Y-16508105D01*
X41530986Y-16539294D01*
X41402183Y-16645000D01*
X39525819Y-16645000D01*
X37865683Y-14984865D01*
X37830136Y-14941551D01*
X37657310Y-14799716D01*
X37460134Y-14694324D01*
X37246186Y-14629423D01*
X37079439Y-14613000D01*
X37079438Y-14613000D01*
X37023687Y-14607509D01*
X36967936Y-14613000D01*
X26060632Y-14613000D01*
X25138000Y-13690369D01*
X25138000Y-11374248D01*
X25121577Y-11207501D01*
X25056676Y-10993553D01*
X24951284Y-10796377D01*
X24809449Y-10623551D01*
X24636623Y-10481716D01*
X24439447Y-10376324D01*
X24225499Y-10311423D01*
X24003000Y-10289509D01*
X23780502Y-10311423D01*
X23566554Y-10376324D01*
X23369378Y-10481716D01*
X23196552Y-10623551D01*
X23054717Y-10796377D01*
X22949325Y-10993553D01*
X22884424Y-11207501D01*
X22868001Y-11374248D01*
X22868000Y-14104748D01*
X22862509Y-14160500D01*
X22868000Y-14216251D01*
X22884423Y-14382998D01*
X22949324Y-14596946D01*
X23054716Y-14794123D01*
X23196551Y-14966949D01*
X23239865Y-15002496D01*
X24748509Y-16511140D01*
X24784051Y-16554449D01*
X24956877Y-16696284D01*
X25116763Y-16781744D01*
X25154053Y-16801676D01*
X25368001Y-16866577D01*
X25590499Y-16888491D01*
X25646251Y-16883000D01*
X27655760Y-16883000D01*
X27511102Y-16911774D01*
X27322744Y-16989795D01*
X27153226Y-17103063D01*
X27009063Y-17247226D01*
X26895795Y-17416744D01*
X26817774Y-17605102D01*
X26778000Y-17805061D01*
X26778000Y-17867198D01*
X26159002Y-18486196D01*
X26129999Y-18509999D01*
X26083170Y-18567061D01*
X26035026Y-18625724D01*
X25980207Y-18728283D01*
X25964454Y-18757754D01*
X25920997Y-18901015D01*
X25910000Y-19012668D01*
X25910000Y-19012678D01*
X25906324Y-19050000D01*
X25910000Y-19087323D01*
X25910000Y-20312405D01*
X25840986Y-20349294D01*
X25614866Y-20534866D01*
X25429294Y-20760986D01*
X25400000Y-20815791D01*
X25370706Y-20760986D01*
X25185134Y-20534866D01*
X24959014Y-20349294D01*
X24701034Y-20211401D01*
X24421111Y-20126487D01*
X24202950Y-20105000D01*
X24057050Y-20105000D01*
X23838889Y-20126487D01*
X23764005Y-20149203D01*
X22667500Y-19052699D01*
X22667500Y-18039211D01*
X22711437Y-17995274D01*
X22824705Y-17825756D01*
X22902726Y-17637398D01*
X22942500Y-17437439D01*
X22942500Y-17233561D01*
X22902726Y-17033602D01*
X22824705Y-16845244D01*
X22711437Y-16675726D01*
X22567274Y-16531563D01*
X22397756Y-16418295D01*
X22209398Y-16340274D01*
X22009439Y-16300500D01*
X21805561Y-16300500D01*
X21605602Y-16340274D01*
X21417244Y-16418295D01*
X21247726Y-16531563D01*
X21170450Y-16608840D01*
X21124652Y-16563042D01*
X20955134Y-16449774D01*
X20766776Y-16371753D01*
X20566817Y-16331979D01*
X20362939Y-16331979D01*
X20162980Y-16371753D01*
X19974622Y-16449774D01*
X19805104Y-16563042D01*
X19804929Y-16563218D01*
X19709774Y-16468063D01*
X19540256Y-16354795D01*
X19351898Y-16276774D01*
X19151939Y-16237000D01*
X18948061Y-16237000D01*
X18748102Y-16276774D01*
X18559744Y-16354795D01*
X18390226Y-16468063D01*
X18246063Y-16612226D01*
X18233300Y-16631327D01*
X18213170Y-16601201D01*
X18069007Y-16457038D01*
X17899489Y-16343770D01*
X17711131Y-16265749D01*
X17511172Y-16225975D01*
X17307294Y-16225975D01*
X17107335Y-16265749D01*
X16918977Y-16343770D01*
X16749459Y-16457038D01*
X16605296Y-16601201D01*
X16492028Y-16770719D01*
X16414007Y-16959077D01*
X16374233Y-17159036D01*
X16374233Y-17221173D01*
X15998998Y-17596409D01*
X15970000Y-17620207D01*
X15946202Y-17649205D01*
X15946201Y-17649206D01*
X15875026Y-17735932D01*
X15804454Y-17867962D01*
X15788670Y-17919997D01*
X15760998Y-18011222D01*
X15754061Y-18081650D01*
X15746324Y-18160208D01*
X15750001Y-18197540D01*
X15750000Y-20312405D01*
X15680986Y-20349294D01*
X15454866Y-20534866D01*
X15269294Y-20760986D01*
X15234799Y-20825523D01*
X15165178Y-20708645D01*
X14970269Y-20492412D01*
X14736920Y-20318359D01*
X14474099Y-20193175D01*
X14326890Y-20148524D01*
X14097000Y-20269845D01*
X14097000Y-21463000D01*
X14117000Y-21463000D01*
X14117000Y-21717000D01*
X14097000Y-21717000D01*
X14097000Y-21737000D01*
X13843000Y-21737000D01*
X13843000Y-21717000D01*
X13823000Y-21717000D01*
X13823000Y-21463000D01*
X13843000Y-21463000D01*
X13843000Y-20269845D01*
X13613110Y-20148524D01*
X13465901Y-20193175D01*
X13203080Y-20318359D01*
X12969731Y-20492412D01*
X12774822Y-20708645D01*
X12705201Y-20825523D01*
X12670706Y-20760986D01*
X12485134Y-20534866D01*
X12259014Y-20349294D01*
X12001034Y-20211401D01*
X11721111Y-20126487D01*
X11502950Y-20105000D01*
X11357050Y-20105000D01*
X11138889Y-20126487D01*
X10858966Y-20211401D01*
X10600986Y-20349294D01*
X10374866Y-20534866D01*
X10189294Y-20760986D01*
X10160000Y-20815791D01*
X10130706Y-20760986D01*
X9945134Y-20534866D01*
X9719014Y-20349294D01*
X9461034Y-20211401D01*
X9181111Y-20126487D01*
X8962950Y-20105000D01*
X8817050Y-20105000D01*
X8598889Y-20126487D01*
X8318966Y-20211401D01*
X8060986Y-20349294D01*
X7834866Y-20534866D01*
X7810393Y-20564687D01*
X7789502Y-20495820D01*
X7730537Y-20385506D01*
X7651185Y-20288815D01*
X7554494Y-20209463D01*
X7444180Y-20150498D01*
X7324482Y-20114188D01*
X7200000Y-20101928D01*
X7004326Y-20101928D01*
X6984974Y-20065724D01*
X6890001Y-19949999D01*
X6861004Y-19926202D01*
X4330804Y-17396003D01*
X4307001Y-17366999D01*
X4191276Y-17272026D01*
X4059247Y-17201454D01*
X3915986Y-17157997D01*
X3804333Y-17147000D01*
X3804322Y-17147000D01*
X3767000Y-17143324D01*
X3729678Y-17147000D01*
X1902302Y-17147000D01*
X1777703Y-17022402D01*
X1837800Y-5904502D01*
X2156302Y-5586000D01*
X4407678Y-5586000D01*
X4445000Y-5589676D01*
X4482322Y-5586000D01*
X4482333Y-5586000D01*
X4593986Y-5575003D01*
X4737247Y-5531546D01*
X4869276Y-5460974D01*
X4985001Y-5366001D01*
X5008804Y-5336998D01*
X5627802Y-4718000D01*
X5689939Y-4718000D01*
X5889898Y-4678226D01*
X6078256Y-4600205D01*
X6247774Y-4486937D01*
X6391937Y-4342774D01*
X6505205Y-4173256D01*
X6583226Y-3984898D01*
X6623000Y-3784939D01*
X6623000Y-3581061D01*
X6583226Y-3381102D01*
X6505205Y-3192744D01*
X6391937Y-3023226D01*
X6247774Y-2879063D01*
X6078256Y-2765795D01*
X5889898Y-2687774D01*
X5689939Y-2648000D01*
X5486061Y-2648000D01*
X5286102Y-2687774D01*
X5097744Y-2765795D01*
X4928226Y-2879063D01*
X4784063Y-3023226D01*
X4696641Y-3154062D01*
X4775000Y-2760128D01*
X4775000Y-2319872D01*
X4689110Y-1888075D01*
X4520631Y-1481331D01*
X4276038Y-1115271D01*
X3964729Y-803962D01*
X3824105Y-710000D01*
X15021928Y-710000D01*
X15021928Y-2120000D01*
M02*
