G04 #@! TF.GenerationSoftware,KiCad,Pcbnew,5.1.4+dfsg1-1*
G04 #@! TF.CreationDate,2019-11-21T21:12:40-08:00*
G04 #@! TF.ProjectId,feather-wing-pmod,66656174-6865-4722-9d77-696e672d706d,rev?*
G04 #@! TF.SameCoordinates,PX791ddc0PY4d83c00*
G04 #@! TF.FileFunction,Legend,Bot*
G04 #@! TF.FilePolarity,Positive*
%FSLAX46Y46*%
G04 Gerber Fmt 4.6, Leading zero omitted, Abs format (unit mm)*
G04 Created by KiCad (PCBNEW 5.1.4+dfsg1-1) date 2019-11-21 21:12:40*
%MOMM*%
%LPD*%
G04 APERTURE LIST*
%ADD10C,0.400000*%
G04 APERTURE END LIST*
D10*
X38880285Y-5872428D02*
X38194571Y-5872428D01*
X38623142Y-7205761D02*
X38623142Y-5491476D01*
X38537428Y-5301000D01*
X38366000Y-5205761D01*
X38194571Y-5205761D01*
X36908857Y-7110523D02*
X37080285Y-7205761D01*
X37423142Y-7205761D01*
X37594571Y-7110523D01*
X37680285Y-6920047D01*
X37680285Y-6158142D01*
X37594571Y-5967666D01*
X37423142Y-5872428D01*
X37080285Y-5872428D01*
X36908857Y-5967666D01*
X36823142Y-6158142D01*
X36823142Y-6348619D01*
X37680285Y-6539095D01*
X35280285Y-7205761D02*
X35280285Y-6158142D01*
X35366000Y-5967666D01*
X35537428Y-5872428D01*
X35880285Y-5872428D01*
X36051714Y-5967666D01*
X35280285Y-7110523D02*
X35451714Y-7205761D01*
X35880285Y-7205761D01*
X36051714Y-7110523D01*
X36137428Y-6920047D01*
X36137428Y-6729571D01*
X36051714Y-6539095D01*
X35880285Y-6443857D01*
X35451714Y-6443857D01*
X35280285Y-6348619D01*
X34680285Y-5872428D02*
X33994571Y-5872428D01*
X34423142Y-5205761D02*
X34423142Y-6920047D01*
X34337428Y-7110523D01*
X34166000Y-7205761D01*
X33994571Y-7205761D01*
X33394571Y-7205761D02*
X33394571Y-5205761D01*
X32623142Y-7205761D02*
X32623142Y-6158142D01*
X32708857Y-5967666D01*
X32880285Y-5872428D01*
X33137428Y-5872428D01*
X33308857Y-5967666D01*
X33394571Y-6062904D01*
X31080285Y-7110523D02*
X31251714Y-7205761D01*
X31594571Y-7205761D01*
X31766000Y-7110523D01*
X31851714Y-6920047D01*
X31851714Y-6158142D01*
X31766000Y-5967666D01*
X31594571Y-5872428D01*
X31251714Y-5872428D01*
X31080285Y-5967666D01*
X30994571Y-6158142D01*
X30994571Y-6348619D01*
X31851714Y-6539095D01*
X30223142Y-7205761D02*
X30223142Y-5872428D01*
X30223142Y-6253380D02*
X30137428Y-6062904D01*
X30051714Y-5967666D01*
X29880285Y-5872428D01*
X29708857Y-5872428D01*
X29108857Y-6443857D02*
X27737428Y-6443857D01*
X27051714Y-5872428D02*
X26708857Y-7205761D01*
X26366000Y-6253380D01*
X26023142Y-7205761D01*
X25680285Y-5872428D01*
X24994571Y-7205761D02*
X24994571Y-5872428D01*
X24994571Y-5205761D02*
X25080285Y-5301000D01*
X24994571Y-5396238D01*
X24908857Y-5301000D01*
X24994571Y-5205761D01*
X24994571Y-5396238D01*
X24137428Y-5872428D02*
X24137428Y-7205761D01*
X24137428Y-6062904D02*
X24051714Y-5967666D01*
X23880285Y-5872428D01*
X23623142Y-5872428D01*
X23451714Y-5967666D01*
X23366000Y-6158142D01*
X23366000Y-7205761D01*
X21737428Y-5872428D02*
X21737428Y-7491476D01*
X21823142Y-7681952D01*
X21908857Y-7777190D01*
X22080285Y-7872428D01*
X22337428Y-7872428D01*
X22508857Y-7777190D01*
X21737428Y-7110523D02*
X21908857Y-7205761D01*
X22251714Y-7205761D01*
X22423142Y-7110523D01*
X22508857Y-7015285D01*
X22594571Y-6824809D01*
X22594571Y-6253380D01*
X22508857Y-6062904D01*
X22423142Y-5967666D01*
X22251714Y-5872428D01*
X21908857Y-5872428D01*
X21737428Y-5967666D01*
X20880285Y-6443857D02*
X19508857Y-6443857D01*
X18651714Y-5872428D02*
X18651714Y-7872428D01*
X18651714Y-5967666D02*
X18480285Y-5872428D01*
X18137428Y-5872428D01*
X17966000Y-5967666D01*
X17880285Y-6062904D01*
X17794571Y-6253380D01*
X17794571Y-6824809D01*
X17880285Y-7015285D01*
X17966000Y-7110523D01*
X18137428Y-7205761D01*
X18480285Y-7205761D01*
X18651714Y-7110523D01*
X17023142Y-7205761D02*
X17023142Y-5872428D01*
X17023142Y-6062904D02*
X16937428Y-5967666D01*
X16766000Y-5872428D01*
X16508857Y-5872428D01*
X16337428Y-5967666D01*
X16251714Y-6158142D01*
X16251714Y-7205761D01*
X16251714Y-6158142D02*
X16166000Y-5967666D01*
X15994571Y-5872428D01*
X15737428Y-5872428D01*
X15566000Y-5967666D01*
X15480285Y-6158142D01*
X15480285Y-7205761D01*
X14366000Y-7205761D02*
X14537428Y-7110523D01*
X14623142Y-7015285D01*
X14708857Y-6824809D01*
X14708857Y-6253380D01*
X14623142Y-6062904D01*
X14537428Y-5967666D01*
X14366000Y-5872428D01*
X14108857Y-5872428D01*
X13937428Y-5967666D01*
X13851714Y-6062904D01*
X13766000Y-6253380D01*
X13766000Y-6824809D01*
X13851714Y-7015285D01*
X13937428Y-7110523D01*
X14108857Y-7205761D01*
X14366000Y-7205761D01*
X12223142Y-7205761D02*
X12223142Y-5205761D01*
X12223142Y-7110523D02*
X12394571Y-7205761D01*
X12737428Y-7205761D01*
X12908857Y-7110523D01*
X12994571Y-7015285D01*
X13080285Y-6824809D01*
X13080285Y-6253380D01*
X12994571Y-6062904D01*
X12908857Y-5967666D01*
X12737428Y-5872428D01*
X12394571Y-5872428D01*
X12223142Y-5967666D01*
X11366000Y-7015285D02*
X11280285Y-7110523D01*
X11366000Y-7205761D01*
X11451714Y-7110523D01*
X11366000Y-7015285D01*
X11366000Y-7205761D01*
X10766000Y-5872428D02*
X10080285Y-5872428D01*
X10508857Y-5205761D02*
X10508857Y-6920047D01*
X10423142Y-7110523D01*
X10251714Y-7205761D01*
X10080285Y-7205761D01*
X9223142Y-7205761D02*
X9394571Y-7110523D01*
X9480285Y-7015285D01*
X9566000Y-6824809D01*
X9566000Y-6253380D01*
X9480285Y-6062904D01*
X9394571Y-5967666D01*
X9223142Y-5872428D01*
X8966000Y-5872428D01*
X8794571Y-5967666D01*
X8708857Y-6062904D01*
X8623142Y-6253380D01*
X8623142Y-6824809D01*
X8708857Y-7015285D01*
X8794571Y-7110523D01*
X8966000Y-7205761D01*
X9223142Y-7205761D01*
X7851714Y-7205761D02*
X7851714Y-5872428D01*
X7851714Y-6062904D02*
X7766000Y-5967666D01*
X7594571Y-5872428D01*
X7337428Y-5872428D01*
X7166000Y-5967666D01*
X7080285Y-6158142D01*
X7080285Y-7205761D01*
X7080285Y-6158142D02*
X6994571Y-5967666D01*
X6823142Y-5872428D01*
X6566000Y-5872428D01*
X6394571Y-5967666D01*
X6308857Y-6158142D01*
X6308857Y-7205761D01*
X5451714Y-7205761D02*
X5451714Y-5205761D01*
X5280285Y-6443857D02*
X4766000Y-7205761D01*
X4766000Y-5872428D02*
X5451714Y-6634333D01*
X3994571Y-7015285D02*
X3908857Y-7110523D01*
X3994571Y-7205761D01*
X4080285Y-7110523D01*
X3994571Y-7015285D01*
X3994571Y-7205761D01*
X3137428Y-7205761D02*
X3137428Y-5872428D01*
X3137428Y-5205761D02*
X3223142Y-5301000D01*
X3137428Y-5396238D01*
X3051714Y-5301000D01*
X3137428Y-5205761D01*
X3137428Y-5396238D01*
X2280285Y-5872428D02*
X2280285Y-7205761D01*
X2280285Y-6062904D02*
X2194571Y-5967666D01*
X2023142Y-5872428D01*
X1766000Y-5872428D01*
X1594571Y-5967666D01*
X1508857Y-6158142D01*
X1508857Y-7205761D01*
X22637428Y-9272428D02*
X22208857Y-10605761D01*
X21780285Y-9272428D01*
X20151714Y-10605761D02*
X21180285Y-10605761D01*
X20666000Y-10605761D02*
X20666000Y-8605761D01*
X20837428Y-8891476D01*
X21008857Y-9081952D01*
X21180285Y-9177190D01*
X19380285Y-10415285D02*
X19294571Y-10510523D01*
X19380285Y-10605761D01*
X19466000Y-10510523D01*
X19380285Y-10415285D01*
X19380285Y-10605761D01*
X18180285Y-8605761D02*
X18008857Y-8605761D01*
X17837428Y-8701000D01*
X17751714Y-8796238D01*
X17666000Y-8986714D01*
X17580285Y-9367666D01*
X17580285Y-9843857D01*
X17666000Y-10224809D01*
X17751714Y-10415285D01*
X17837428Y-10510523D01*
X18008857Y-10605761D01*
X18180285Y-10605761D01*
X18351714Y-10510523D01*
X18437428Y-10415285D01*
X18523142Y-10224809D01*
X18608857Y-9843857D01*
X18608857Y-9367666D01*
X18523142Y-8986714D01*
X18437428Y-8796238D01*
X18351714Y-8701000D01*
X18180285Y-8605761D01*
M02*
