G04 #@! TF.GenerationSoftware,KiCad,Pcbnew,5.1.4+dfsg1-1*
G04 #@! TF.CreationDate,2019-11-21T21:12:40-08:00*
G04 #@! TF.ProjectId,feather-wing-pmod,66656174-6865-4722-9d77-696e672d706d,rev?*
G04 #@! TF.SameCoordinates,PX791ddc0PY4d83c00*
G04 #@! TF.FileFunction,Legend,Top*
G04 #@! TF.FilePolarity,Positive*
%FSLAX46Y46*%
G04 Gerber Fmt 4.6, Leading zero omitted, Abs format (unit mm)*
G04 Created by KiCad (PCBNEW 5.1.4+dfsg1-1) date 2019-11-21 21:12:40*
%MOMM*%
%LPD*%
G04 APERTURE LIST*
%ADD10C,0.150000*%
%ADD11C,0.200000*%
%ADD12C,0.120000*%
%ADD13C,1.000000*%
%ADD14C,0.400000*%
G04 APERTURE END LIST*
D10*
X12033404Y-3182880D02*
X11700071Y-2706690D01*
X11461976Y-3182880D02*
X11461976Y-2182880D01*
X11842928Y-2182880D01*
X11938166Y-2230500D01*
X11985785Y-2278119D01*
X12033404Y-2373357D01*
X12033404Y-2516214D01*
X11985785Y-2611452D01*
X11938166Y-2659071D01*
X11842928Y-2706690D01*
X11461976Y-2706690D01*
X12842928Y-3135261D02*
X12747690Y-3182880D01*
X12557214Y-3182880D01*
X12461976Y-3135261D01*
X12414357Y-3040023D01*
X12414357Y-2659071D01*
X12461976Y-2563833D01*
X12557214Y-2516214D01*
X12747690Y-2516214D01*
X12842928Y-2563833D01*
X12890547Y-2659071D01*
X12890547Y-2754309D01*
X12414357Y-2849547D01*
X13271500Y-3135261D02*
X13366738Y-3182880D01*
X13557214Y-3182880D01*
X13652452Y-3135261D01*
X13700071Y-3040023D01*
X13700071Y-2992404D01*
X13652452Y-2897166D01*
X13557214Y-2849547D01*
X13414357Y-2849547D01*
X13319119Y-2801928D01*
X13271500Y-2706690D01*
X13271500Y-2659071D01*
X13319119Y-2563833D01*
X13414357Y-2516214D01*
X13557214Y-2516214D01*
X13652452Y-2563833D01*
X14509595Y-3135261D02*
X14414357Y-3182880D01*
X14223880Y-3182880D01*
X14128642Y-3135261D01*
X14081023Y-3040023D01*
X14081023Y-2659071D01*
X14128642Y-2563833D01*
X14223880Y-2516214D01*
X14414357Y-2516214D01*
X14509595Y-2563833D01*
X14557214Y-2659071D01*
X14557214Y-2754309D01*
X14081023Y-2849547D01*
X14842928Y-2516214D02*
X15223880Y-2516214D01*
X14985785Y-2182880D02*
X14985785Y-3040023D01*
X15033404Y-3135261D01*
X15128642Y-3182880D01*
X15223880Y-3182880D01*
D11*
X40647880Y-14556666D02*
X40647880Y-15128095D01*
X40647880Y-14842380D02*
X39647880Y-14842380D01*
X39790738Y-14937619D01*
X39885976Y-15032857D01*
X39933595Y-15128095D01*
X40266928Y-14128095D02*
X40266928Y-13366190D01*
X39981214Y-12461428D02*
X40647880Y-12461428D01*
X39600261Y-12699523D02*
X40314547Y-12937619D01*
X40314547Y-12318571D01*
X40552642Y-11937619D02*
X40600261Y-11890000D01*
X40647880Y-11937619D01*
X40600261Y-11985238D01*
X40552642Y-11937619D01*
X40647880Y-11937619D01*
X40028833Y-11937619D02*
X40076452Y-11890000D01*
X40124071Y-11937619D01*
X40076452Y-11985238D01*
X40028833Y-11937619D01*
X40124071Y-11937619D01*
X40600261Y-11509047D02*
X40647880Y-11366190D01*
X40647880Y-11128095D01*
X40600261Y-11032857D01*
X40552642Y-10985238D01*
X40457404Y-10937619D01*
X40362166Y-10937619D01*
X40266928Y-10985238D01*
X40219309Y-11032857D01*
X40171690Y-11128095D01*
X40124071Y-11318571D01*
X40076452Y-11413809D01*
X40028833Y-11461428D01*
X39933595Y-11509047D01*
X39838357Y-11509047D01*
X39743119Y-11461428D01*
X39695500Y-11413809D01*
X39647880Y-11318571D01*
X39647880Y-11080476D01*
X39695500Y-10937619D01*
X40647880Y-10509047D02*
X39647880Y-10509047D01*
X39647880Y-10128095D01*
X39695500Y-10032857D01*
X39743119Y-9985238D01*
X39838357Y-9937619D01*
X39981214Y-9937619D01*
X40076452Y-9985238D01*
X40124071Y-10032857D01*
X40171690Y-10128095D01*
X40171690Y-10509047D01*
X40647880Y-9509047D02*
X39647880Y-9509047D01*
X39647880Y-8366190D02*
X39647880Y-7699523D01*
X40647880Y-8128095D01*
X40266928Y-7318571D02*
X40266928Y-6556666D01*
X40076452Y-5937619D02*
X40028833Y-6032857D01*
X39981214Y-6080476D01*
X39885976Y-6128095D01*
X39838357Y-6128095D01*
X39743119Y-6080476D01*
X39695500Y-6032857D01*
X39647880Y-5937619D01*
X39647880Y-5747142D01*
X39695500Y-5651904D01*
X39743119Y-5604285D01*
X39838357Y-5556666D01*
X39885976Y-5556666D01*
X39981214Y-5604285D01*
X40028833Y-5651904D01*
X40076452Y-5747142D01*
X40076452Y-5937619D01*
X40124071Y-6032857D01*
X40171690Y-6080476D01*
X40266928Y-6128095D01*
X40457404Y-6128095D01*
X40552642Y-6080476D01*
X40600261Y-6032857D01*
X40647880Y-5937619D01*
X40647880Y-5747142D01*
X40600261Y-5651904D01*
X40552642Y-5604285D01*
X40457404Y-5556666D01*
X40266928Y-5556666D01*
X40171690Y-5604285D01*
X40124071Y-5651904D01*
X40076452Y-5747142D01*
X40552642Y-5128095D02*
X40600261Y-5080476D01*
X40647880Y-5128095D01*
X40600261Y-5175714D01*
X40552642Y-5128095D01*
X40647880Y-5128095D01*
X40028833Y-5128095D02*
X40076452Y-5080476D01*
X40124071Y-5128095D01*
X40076452Y-5175714D01*
X40028833Y-5128095D01*
X40124071Y-5128095D01*
X40647880Y-4651904D02*
X39647880Y-4651904D01*
X39743119Y-4223333D02*
X39695500Y-4175714D01*
X39647880Y-4080476D01*
X39647880Y-3842380D01*
X39695500Y-3747142D01*
X39743119Y-3699523D01*
X39838357Y-3651904D01*
X39933595Y-3651904D01*
X40076452Y-3699523D01*
X40647880Y-4270952D01*
X40647880Y-3651904D01*
X40552642Y-2651904D02*
X40600261Y-2699523D01*
X40647880Y-2842380D01*
X40647880Y-2937619D01*
X40600261Y-3080476D01*
X40505023Y-3175714D01*
X40409785Y-3223333D01*
X40219309Y-3270952D01*
X40076452Y-3270952D01*
X39885976Y-3223333D01*
X39790738Y-3175714D01*
X39695500Y-3080476D01*
X39647880Y-2937619D01*
X39647880Y-2842380D01*
X39695500Y-2699523D01*
X39743119Y-2651904D01*
X29671095Y-5645119D02*
X29671095Y-6387976D01*
X29671095Y-6016547D02*
X28371095Y-6016547D01*
X28556809Y-6140357D01*
X28680619Y-6264166D01*
X28742523Y-6387976D01*
X28371095Y-4840357D02*
X28371095Y-4716547D01*
X28433000Y-4592738D01*
X28494904Y-4530833D01*
X28618714Y-4468928D01*
X28866333Y-4407023D01*
X29175857Y-4407023D01*
X29423476Y-4468928D01*
X29547285Y-4530833D01*
X29609190Y-4592738D01*
X29671095Y-4716547D01*
X29671095Y-4840357D01*
X29609190Y-4964166D01*
X29547285Y-5026071D01*
X29423476Y-5087976D01*
X29175857Y-5149880D01*
X28866333Y-5149880D01*
X28618714Y-5087976D01*
X28494904Y-5026071D01*
X28433000Y-4964166D01*
X28371095Y-4840357D01*
X32211095Y-5645119D02*
X32211095Y-5397500D01*
X32149190Y-5273690D01*
X32087285Y-5211785D01*
X31901571Y-5087976D01*
X31653952Y-5026071D01*
X31158714Y-5026071D01*
X31034904Y-5087976D01*
X30973000Y-5149880D01*
X30911095Y-5273690D01*
X30911095Y-5521309D01*
X30973000Y-5645119D01*
X31034904Y-5707023D01*
X31158714Y-5768928D01*
X31468238Y-5768928D01*
X31592047Y-5707023D01*
X31653952Y-5645119D01*
X31715857Y-5521309D01*
X31715857Y-5273690D01*
X31653952Y-5149880D01*
X31592047Y-5087976D01*
X31468238Y-5026071D01*
X33451095Y-5149880D02*
X33451095Y-5397500D01*
X33513000Y-5521309D01*
X33574904Y-5583214D01*
X33760619Y-5707023D01*
X34008238Y-5768928D01*
X34503476Y-5768928D01*
X34627285Y-5707023D01*
X34689190Y-5645119D01*
X34751095Y-5521309D01*
X34751095Y-5273690D01*
X34689190Y-5149880D01*
X34627285Y-5087976D01*
X34503476Y-5026071D01*
X34193952Y-5026071D01*
X34070142Y-5087976D01*
X34008238Y-5149880D01*
X33946333Y-5273690D01*
X33946333Y-5521309D01*
X34008238Y-5645119D01*
X34070142Y-5707023D01*
X34193952Y-5768928D01*
X35991095Y-5024476D02*
X35991095Y-5643523D01*
X36610142Y-5705428D01*
X36548238Y-5643523D01*
X36486333Y-5519714D01*
X36486333Y-5210190D01*
X36548238Y-5086380D01*
X36610142Y-5024476D01*
X36733952Y-4962571D01*
X37043476Y-4962571D01*
X37167285Y-5024476D01*
X37229190Y-5086380D01*
X37291095Y-5210190D01*
X37291095Y-5519714D01*
X37229190Y-5643523D01*
X37167285Y-5705428D01*
X37164095Y-17773619D02*
X37164095Y-18516476D01*
X37164095Y-18145047D02*
X35864095Y-18145047D01*
X36049809Y-18268857D01*
X36173619Y-18392666D01*
X36235523Y-18516476D01*
X37164095Y-16535523D02*
X37164095Y-17278380D01*
X37164095Y-16906952D02*
X35864095Y-16906952D01*
X36049809Y-17030761D01*
X36173619Y-17154571D01*
X36235523Y-17278380D01*
X34687595Y-17773619D02*
X34687595Y-18516476D01*
X34687595Y-18145047D02*
X33387595Y-18145047D01*
X33573309Y-18268857D01*
X33697119Y-18392666D01*
X33759023Y-18516476D01*
X33511404Y-17278380D02*
X33449500Y-17216476D01*
X33387595Y-17092666D01*
X33387595Y-16783142D01*
X33449500Y-16659333D01*
X33511404Y-16597428D01*
X33635214Y-16535523D01*
X33759023Y-16535523D01*
X33944738Y-16597428D01*
X34687595Y-17340285D01*
X34687595Y-16535523D01*
X32147595Y-17773619D02*
X32147595Y-18516476D01*
X32147595Y-18145047D02*
X30847595Y-18145047D01*
X31033309Y-18268857D01*
X31157119Y-18392666D01*
X31219023Y-18516476D01*
X30847595Y-17340285D02*
X30847595Y-16535523D01*
X31342833Y-16968857D01*
X31342833Y-16783142D01*
X31404738Y-16659333D01*
X31466642Y-16597428D01*
X31590452Y-16535523D01*
X31899976Y-16535523D01*
X32023785Y-16597428D01*
X32085690Y-16659333D01*
X32147595Y-16783142D01*
X32147595Y-17154571D01*
X32085690Y-17278380D01*
X32023785Y-17340285D01*
X29607595Y-19791904D02*
X28307595Y-19791904D01*
X29236166Y-19358571D01*
X28307595Y-18925238D01*
X29607595Y-18925238D01*
X29607595Y-18306190D02*
X28307595Y-18306190D01*
X29545690Y-17749047D02*
X29607595Y-17563333D01*
X29607595Y-17253809D01*
X29545690Y-17130000D01*
X29483785Y-17068095D01*
X29359976Y-17006190D01*
X29236166Y-17006190D01*
X29112357Y-17068095D01*
X29050452Y-17130000D01*
X28988547Y-17253809D01*
X28926642Y-17501428D01*
X28864738Y-17625238D01*
X28802833Y-17687142D01*
X28679023Y-17749047D01*
X28555214Y-17749047D01*
X28431404Y-17687142D01*
X28369500Y-17625238D01*
X28307595Y-17501428D01*
X28307595Y-17191904D01*
X28369500Y-17006190D01*
X29483785Y-15706190D02*
X29545690Y-15768095D01*
X29607595Y-15953809D01*
X29607595Y-16077619D01*
X29545690Y-16263333D01*
X29421880Y-16387142D01*
X29298071Y-16449047D01*
X29050452Y-16510952D01*
X28864738Y-16510952D01*
X28617119Y-16449047D01*
X28493309Y-16387142D01*
X28369500Y-16263333D01*
X28307595Y-16077619D01*
X28307595Y-15953809D01*
X28369500Y-15768095D01*
X28431404Y-15706190D01*
X25893000Y-18516476D02*
X25831095Y-18640285D01*
X25831095Y-18826000D01*
X25893000Y-19011714D01*
X26016809Y-19135523D01*
X26140619Y-19197428D01*
X26388238Y-19259333D01*
X26573952Y-19259333D01*
X26821571Y-19197428D01*
X26945380Y-19135523D01*
X27069190Y-19011714D01*
X27131095Y-18826000D01*
X27131095Y-18702190D01*
X27069190Y-18516476D01*
X27007285Y-18454571D01*
X26573952Y-18454571D01*
X26573952Y-18702190D01*
X27131095Y-17897428D02*
X25831095Y-17897428D01*
X27131095Y-17154571D01*
X25831095Y-17154571D01*
X27131095Y-16535523D02*
X25831095Y-16535523D01*
X25831095Y-16226000D01*
X25893000Y-16040285D01*
X26016809Y-15916476D01*
X26140619Y-15854571D01*
X26388238Y-15792666D01*
X26573952Y-15792666D01*
X26821571Y-15854571D01*
X26945380Y-15916476D01*
X27069190Y-16040285D01*
X27131095Y-16226000D01*
X27131095Y-16535523D01*
X23227595Y-19135523D02*
X23227595Y-18330761D01*
X23722833Y-18764095D01*
X23722833Y-18578380D01*
X23784738Y-18454571D01*
X23846642Y-18392666D01*
X23970452Y-18330761D01*
X24279976Y-18330761D01*
X24403785Y-18392666D01*
X24465690Y-18454571D01*
X24527595Y-18578380D01*
X24527595Y-18949809D01*
X24465690Y-19073619D01*
X24403785Y-19135523D01*
X23227595Y-17959333D02*
X24527595Y-17526000D01*
X23227595Y-17092666D01*
X23227595Y-16783142D02*
X23227595Y-15978380D01*
X23722833Y-16411714D01*
X23722833Y-16226000D01*
X23784738Y-16102190D01*
X23846642Y-16040285D01*
X23970452Y-15978380D01*
X24279976Y-15978380D01*
X24403785Y-16040285D01*
X24465690Y-16102190D01*
X24527595Y-16226000D01*
X24527595Y-16597428D01*
X24465690Y-16721238D01*
X24403785Y-16783142D01*
X6376166Y-6262571D02*
X6376166Y-5643523D01*
X6747595Y-6386380D02*
X5447595Y-5953047D01*
X6747595Y-5519714D01*
X5447595Y-5210190D02*
X5447595Y-4405428D01*
X5942833Y-4838761D01*
X5942833Y-4653047D01*
X6004738Y-4529238D01*
X6066642Y-4467333D01*
X6190452Y-4405428D01*
X6499976Y-4405428D01*
X6623785Y-4467333D01*
X6685690Y-4529238D01*
X6747595Y-4653047D01*
X6747595Y-5024476D01*
X6685690Y-5148285D01*
X6623785Y-5210190D01*
X8979666Y-6262571D02*
X8979666Y-5643523D01*
X9351095Y-6386380D02*
X8051095Y-5953047D01*
X9351095Y-5519714D01*
X8174904Y-5148285D02*
X8113000Y-5086380D01*
X8051095Y-4962571D01*
X8051095Y-4653047D01*
X8113000Y-4529238D01*
X8174904Y-4467333D01*
X8298714Y-4405428D01*
X8422523Y-4405428D01*
X8608238Y-4467333D01*
X9351095Y-5210190D01*
X9351095Y-4405428D01*
X11519666Y-6262571D02*
X11519666Y-5643523D01*
X11891095Y-6386380D02*
X10591095Y-5953047D01*
X11891095Y-5519714D01*
X11891095Y-4405428D02*
X11891095Y-5148285D01*
X11891095Y-4776857D02*
X10591095Y-4776857D01*
X10776809Y-4900666D01*
X10900619Y-5024476D01*
X10962523Y-5148285D01*
X14059666Y-6262571D02*
X14059666Y-5643523D01*
X14431095Y-6386380D02*
X13131095Y-5953047D01*
X14431095Y-5519714D01*
X13131095Y-4838761D02*
X13131095Y-4714952D01*
X13193000Y-4591142D01*
X13254904Y-4529238D01*
X13378714Y-4467333D01*
X13626333Y-4405428D01*
X13935857Y-4405428D01*
X14183476Y-4467333D01*
X14307285Y-4529238D01*
X14369190Y-4591142D01*
X14431095Y-4714952D01*
X14431095Y-4838761D01*
X14369190Y-4962571D01*
X14307285Y-5024476D01*
X14183476Y-5086380D01*
X13935857Y-5148285D01*
X13626333Y-5148285D01*
X13378714Y-5086380D01*
X13254904Y-5024476D01*
X13193000Y-4962571D01*
X13131095Y-4838761D01*
X14059666Y-17946571D02*
X14059666Y-17327523D01*
X14431095Y-18070380D02*
X13131095Y-17637047D01*
X14431095Y-17203714D01*
X13564428Y-16213238D02*
X14431095Y-16213238D01*
X13069190Y-16522761D02*
X13997761Y-16832285D01*
X13997761Y-16027523D01*
X11519666Y-17946571D02*
X11519666Y-17327523D01*
X11891095Y-18070380D02*
X10591095Y-17637047D01*
X11891095Y-17203714D01*
X10591095Y-16151333D02*
X10591095Y-16770380D01*
X11210142Y-16832285D01*
X11148238Y-16770380D01*
X11086333Y-16646571D01*
X11086333Y-16337047D01*
X11148238Y-16213238D01*
X11210142Y-16151333D01*
X11333952Y-16089428D01*
X11643476Y-16089428D01*
X11767285Y-16151333D01*
X11829190Y-16213238D01*
X11891095Y-16337047D01*
X11891095Y-16646571D01*
X11829190Y-16770380D01*
X11767285Y-16832285D01*
X9351095Y-17234666D02*
X8732047Y-17668000D01*
X9351095Y-17977523D02*
X8051095Y-17977523D01*
X8051095Y-17482285D01*
X8113000Y-17358476D01*
X8174904Y-17296571D01*
X8298714Y-17234666D01*
X8484428Y-17234666D01*
X8608238Y-17296571D01*
X8670142Y-17358476D01*
X8732047Y-17482285D01*
X8732047Y-17977523D01*
X8051095Y-16801333D02*
X9351095Y-15934666D01*
X8051095Y-15934666D02*
X9351095Y-16801333D01*
X5447595Y-18008476D02*
X5447595Y-17265619D01*
X6747595Y-17637047D02*
X5447595Y-17637047D01*
X5447595Y-16956095D02*
X6747595Y-16089428D01*
X5447595Y-16089428D02*
X6747595Y-16956095D01*
X3183000Y-17779904D02*
X3135380Y-17875142D01*
X3135380Y-18018000D01*
X3183000Y-18160857D01*
X3278238Y-18256095D01*
X3373476Y-18303714D01*
X3563952Y-18351333D01*
X3706809Y-18351333D01*
X3897285Y-18303714D01*
X3992523Y-18256095D01*
X4087761Y-18160857D01*
X4135380Y-18018000D01*
X4135380Y-17922761D01*
X4087761Y-17779904D01*
X4040142Y-17732285D01*
X3706809Y-17732285D01*
X3706809Y-17922761D01*
X4135380Y-17303714D02*
X3135380Y-17303714D01*
X4135380Y-16732285D01*
X3135380Y-16732285D01*
X4135380Y-16256095D02*
X3135380Y-16256095D01*
X3135380Y-16018000D01*
X3183000Y-15875142D01*
X3278238Y-15779904D01*
X3373476Y-15732285D01*
X3563952Y-15684666D01*
X3706809Y-15684666D01*
X3897285Y-15732285D01*
X3992523Y-15779904D01*
X4087761Y-15875142D01*
X4135380Y-16018000D01*
X4135380Y-16256095D01*
X531880Y-18256095D02*
X531880Y-17637047D01*
X912833Y-17970380D01*
X912833Y-17827523D01*
X960452Y-17732285D01*
X1008071Y-17684666D01*
X1103309Y-17637047D01*
X1341404Y-17637047D01*
X1436642Y-17684666D01*
X1484261Y-17732285D01*
X1531880Y-17827523D01*
X1531880Y-18113238D01*
X1484261Y-18208476D01*
X1436642Y-18256095D01*
X531880Y-17351333D02*
X1531880Y-17018000D01*
X531880Y-16684666D01*
X531880Y-16446571D02*
X531880Y-15827523D01*
X912833Y-16160857D01*
X912833Y-16018000D01*
X960452Y-15922761D01*
X1008071Y-15875142D01*
X1103309Y-15827523D01*
X1341404Y-15827523D01*
X1436642Y-15875142D01*
X1484261Y-15922761D01*
X1531880Y-16018000D01*
X1531880Y-16303714D01*
X1484261Y-16398952D01*
X1436642Y-16446571D01*
D12*
X6309000Y-1955000D02*
X6309000Y-1855000D01*
X10709000Y-355000D02*
X6309000Y-355000D01*
X6309000Y-3455000D02*
X10709000Y-3455000D01*
X10709000Y-1955000D02*
X10709000Y-1855000D01*
D13*
X42810000Y-3570000D02*
G75*
G03X42810000Y-3570000I-100000J0D01*
G01*
X38503000Y-8840000D02*
G75*
G03X38503000Y-8840000I-200000J0D01*
G01*
X15643000Y-8840000D02*
G75*
G03X15643000Y-8840000I-200000J0D01*
G01*
D12*
X40642000Y-16672779D02*
X40642000Y-16347221D01*
X39622000Y-16672779D02*
X39622000Y-16347221D01*
X25110221Y-6733000D02*
X25435779Y-6733000D01*
X25110221Y-5713000D02*
X25435779Y-5713000D01*
X2250221Y-6733000D02*
X2575779Y-6733000D01*
X2250221Y-5713000D02*
X2575779Y-5713000D01*
X15180000Y-1270000D02*
X15180000Y60000D01*
X15180000Y60000D02*
X16510000Y60000D01*
X17780000Y60000D02*
X45780000Y60000D01*
X45780000Y-2600000D02*
X45780000Y60000D01*
X17780000Y-2600000D02*
X45780000Y-2600000D01*
X17780000Y-2600000D02*
X17780000Y60000D01*
X5020000Y-21590000D02*
X5020000Y-20260000D01*
X5020000Y-20260000D02*
X6350000Y-20260000D01*
X7620000Y-20260000D02*
X45780000Y-20260000D01*
X45780000Y-22920000D02*
X45780000Y-20260000D01*
X7620000Y-22920000D02*
X45780000Y-22920000D01*
X7620000Y-22920000D02*
X7620000Y-20260000D01*
D10*
X7175666Y140239D02*
X7318523Y92620D01*
X7556619Y92620D01*
X7651857Y140239D01*
X7699476Y187858D01*
X7747095Y283096D01*
X7747095Y378334D01*
X7699476Y473572D01*
X7651857Y521191D01*
X7556619Y568810D01*
X7366142Y616429D01*
X7270904Y664048D01*
X7223285Y711667D01*
X7175666Y806905D01*
X7175666Y902143D01*
X7223285Y997381D01*
X7270904Y1045000D01*
X7366142Y1092620D01*
X7604238Y1092620D01*
X7747095Y1045000D01*
X8080428Y1092620D02*
X8318523Y92620D01*
X8509000Y806905D01*
X8699476Y92620D01*
X8937571Y1092620D01*
X9842333Y92620D02*
X9270904Y92620D01*
X9556619Y92620D02*
X9556619Y1092620D01*
X9461380Y949762D01*
X9366142Y854524D01*
X9270904Y806905D01*
D14*
X21732761Y-16096666D02*
X19732761Y-16096666D01*
X19732761Y-15334761D01*
X19828000Y-15144285D01*
X19923238Y-15049047D01*
X20113714Y-14953809D01*
X20399428Y-14953809D01*
X20589904Y-15049047D01*
X20685142Y-15144285D01*
X20780380Y-15334761D01*
X20780380Y-16096666D01*
X21732761Y-14096666D02*
X19732761Y-14096666D01*
X21161333Y-13430000D01*
X19732761Y-12763333D01*
X21732761Y-12763333D01*
X19732761Y-11430000D02*
X19732761Y-11049047D01*
X19828000Y-10858571D01*
X20018476Y-10668095D01*
X20399428Y-10572857D01*
X21066095Y-10572857D01*
X21447047Y-10668095D01*
X21637523Y-10858571D01*
X21732761Y-11049047D01*
X21732761Y-11430000D01*
X21637523Y-11620476D01*
X21447047Y-11810952D01*
X21066095Y-11906190D01*
X20399428Y-11906190D01*
X20018476Y-11810952D01*
X19828000Y-11620476D01*
X19732761Y-11430000D01*
X21732761Y-9715714D02*
X19732761Y-9715714D01*
X19732761Y-9239523D01*
X19828000Y-8953809D01*
X20018476Y-8763333D01*
X20208952Y-8668095D01*
X20589904Y-8572857D01*
X20875619Y-8572857D01*
X21256571Y-8668095D01*
X21447047Y-8763333D01*
X21637523Y-8953809D01*
X21732761Y-9239523D01*
X21732761Y-9715714D01*
X19923238Y-7810952D02*
X19828000Y-7715714D01*
X19732761Y-7525238D01*
X19732761Y-7049047D01*
X19828000Y-6858571D01*
X19923238Y-6763333D01*
X20113714Y-6668095D01*
X20304190Y-6668095D01*
X20589904Y-6763333D01*
X21732761Y-7906190D01*
X21732761Y-6668095D01*
X18430761Y-16096666D02*
X16430761Y-16096666D01*
X16430761Y-15334761D01*
X16526000Y-15144285D01*
X16621238Y-15049047D01*
X16811714Y-14953809D01*
X17097428Y-14953809D01*
X17287904Y-15049047D01*
X17383142Y-15144285D01*
X17478380Y-15334761D01*
X17478380Y-16096666D01*
X18430761Y-14096666D02*
X16430761Y-14096666D01*
X17859333Y-13430000D01*
X16430761Y-12763333D01*
X18430761Y-12763333D01*
X16430761Y-11430000D02*
X16430761Y-11049047D01*
X16526000Y-10858571D01*
X16716476Y-10668095D01*
X17097428Y-10572857D01*
X17764095Y-10572857D01*
X18145047Y-10668095D01*
X18335523Y-10858571D01*
X18430761Y-11049047D01*
X18430761Y-11430000D01*
X18335523Y-11620476D01*
X18145047Y-11810952D01*
X17764095Y-11906190D01*
X17097428Y-11906190D01*
X16716476Y-11810952D01*
X16526000Y-11620476D01*
X16430761Y-11430000D01*
X18430761Y-9715714D02*
X16430761Y-9715714D01*
X16430761Y-9239523D01*
X16526000Y-8953809D01*
X16716476Y-8763333D01*
X16906952Y-8668095D01*
X17287904Y-8572857D01*
X17573619Y-8572857D01*
X17954571Y-8668095D01*
X18145047Y-8763333D01*
X18335523Y-8953809D01*
X18430761Y-9239523D01*
X18430761Y-9715714D01*
X18430761Y-6668095D02*
X18430761Y-7810952D01*
X18430761Y-7239523D02*
X16430761Y-7239523D01*
X16716476Y-7430000D01*
X16906952Y-7620476D01*
X17002190Y-7810952D01*
D10*
X39965333Y-19534142D02*
X39917714Y-19581761D01*
X39774857Y-19629380D01*
X39679619Y-19629380D01*
X39536761Y-19581761D01*
X39441523Y-19486523D01*
X39393904Y-19391285D01*
X39346285Y-19200809D01*
X39346285Y-19057952D01*
X39393904Y-18867476D01*
X39441523Y-18772238D01*
X39536761Y-18677000D01*
X39679619Y-18629380D01*
X39774857Y-18629380D01*
X39917714Y-18677000D01*
X39965333Y-18724619D01*
X40298666Y-18629380D02*
X40917714Y-18629380D01*
X40584380Y-19010333D01*
X40727238Y-19010333D01*
X40822476Y-19057952D01*
X40870095Y-19105571D01*
X40917714Y-19200809D01*
X40917714Y-19438904D01*
X40870095Y-19534142D01*
X40822476Y-19581761D01*
X40727238Y-19629380D01*
X40441523Y-19629380D01*
X40346285Y-19581761D01*
X40298666Y-19534142D01*
X25106333Y-5150142D02*
X25058714Y-5197761D01*
X24915857Y-5245380D01*
X24820619Y-5245380D01*
X24677761Y-5197761D01*
X24582523Y-5102523D01*
X24534904Y-5007285D01*
X24487285Y-4816809D01*
X24487285Y-4673952D01*
X24534904Y-4483476D01*
X24582523Y-4388238D01*
X24677761Y-4293000D01*
X24820619Y-4245380D01*
X24915857Y-4245380D01*
X25058714Y-4293000D01*
X25106333Y-4340619D01*
X25487285Y-4340619D02*
X25534904Y-4293000D01*
X25630142Y-4245380D01*
X25868238Y-4245380D01*
X25963476Y-4293000D01*
X26011095Y-4340619D01*
X26058714Y-4435857D01*
X26058714Y-4531095D01*
X26011095Y-4673952D01*
X25439666Y-5245380D01*
X26058714Y-5245380D01*
X2246333Y-5150142D02*
X2198714Y-5197761D01*
X2055857Y-5245380D01*
X1960619Y-5245380D01*
X1817761Y-5197761D01*
X1722523Y-5102523D01*
X1674904Y-5007285D01*
X1627285Y-4816809D01*
X1627285Y-4673952D01*
X1674904Y-4483476D01*
X1722523Y-4388238D01*
X1817761Y-4293000D01*
X1960619Y-4245380D01*
X2055857Y-4245380D01*
X2198714Y-4293000D01*
X2246333Y-4340619D01*
X3198714Y-5245380D02*
X2627285Y-5245380D01*
X2913000Y-5245380D02*
X2913000Y-4245380D01*
X2817761Y-4388238D01*
X2722523Y-4483476D01*
X2627285Y-4531095D01*
M02*
